<?xml version="1.0" encoding="utf-8"?>
<!-- Generator: Adobe Illustrator 24.0.1, SVG Export Plug-In . SVG Version: 6.00 Build 0)  -->
<svg version="1.1" id="Capa_1" xmlns="http://www.w3.org/2000/svg" xmlns:xlink="http://www.w3.org/1999/xlink" x="0px" y="0px"
	 width="302px" height="130.5px" viewBox="0 0 302 130.5" style="enable-background:new 0 0 302 130.5;" xml:space="preserve">
<style type="text/css">
	.st0{fill:none;stroke:#A8CC71;stroke-width:12.1314;stroke-linecap:round;stroke-linejoin:round;stroke-miterlimit:10;}
	.st1{fill:none;}
	.st2{fill:#A8CC6F;}
	.st3{fill:#676B74;}
</style>
<g>
	<path class="st0" d="M347.5,6.1"/>
</g>
<g>
	<g>
		<path class="st1" d="M347.5,625.9"/>
	</g>
	<g>
		<path class="st1" d="M347.5,69.2"/>
	</g>
	<g>
		<path class="st1" d="M347.5,69.2"/>
	</g>
	<g>
		<path class="st1" d="M347.5,625.9"/>
	</g>
</g>
<g>
	<g>
		<g>
			<path class="st2" d="M0,121.9v-47c0-5.1,3.2-8,7.6-8h15.9c21.1,0,33.8,11.8,33.8,31.2c0,19.5-13.1,31.7-34.3,31.7H8
				C3.5,129.8,0,126.3,0,121.9z M22.9,117.5c12.5,0,20.1-7.1,20.1-19.3c0-12-7.6-19-19.9-19h-8.9v38.4H22.9z"/>
			<path class="st2" d="M66.4,121.9v-47c0-5.1,2.8-8,7.5-8h35.1c4.5,0,6.6,2.2,6.6,6v0.5c0,4-2.1,6-6.6,6H80.7v12.4h20.6
				c4.7,0,6.6,2,6.6,5.5v0.4c0,3.8-2,5.8-6.6,5.8H80.7v13.7h28.7c4.5,0,6.6,1.9,6.6,5.6v0.6c0,3.9-2.1,6.2-6.6,6.2H73.8
				C69.2,129.8,66.4,127,66.4,121.9z"/>
			<path class="st2" d="M124.5,123.7v-50c0-4.6,2.3-7.1,6.2-7.1h1.7c3.8,0,5.1,1.3,7.3,4.1L167,108V73c0-4.3,2-6.5,6.1-6.5h1.4
				c4,0,6,2.2,6,6.5v50c0,4.7-2.3,7.1-6.1,7.1h-1.2c-3.8,0-4.9-1-6.9-3.5L138,87.8v35.9c0,4.3-2,6.5-6.2,6.5h-1.4
				C126.5,130.2,124.5,127.9,124.5,123.7z"/>
			<path class="st2" d="M187.6,73.2v-0.4c0-3.9,2.3-5.9,6.6-5.9h42.7c4.4,0,6.6,2,6.6,5.9v0.4c0,4.1-2.2,6.2-6.6,6.2h-14.1v44.2
				c0,4.3-2.2,6.5-6.3,6.5h-2c-4,0-5.9-2.2-5.9-6.5V79.5h-14.3C189.9,79.5,187.6,77.3,187.6,73.2z"/>
			<path class="st2" d="M282.1,113.7h-23l-3.8,10.1c-1.7,5-4.8,6.6-7.9,6.6c-4,0-8-3.1-7.5-4.4l21.5-55.5c0.8-2.6,2.8-4.3,9.3-4.3
				c6.6,0,8.4,1.7,9.2,4.3l22,55.4c0.5,1.2-3.5,4.5-7.8,4.5c-3.1,0-6.3-1.7-8.3-6.8L282.1,113.7z M261.9,103.1h17.3l-8.6-22.8
				L261.9,103.1z"/>
		</g>
		<g>
			<path class="st3" d="M62.3,31.2C62.3,12.9,74.7,0,92.1,0c17.6,0,29.7,12.7,29.7,31S109.5,62.1,92,62.1S62.3,49.5,62.3,31.2z
				 M115.3,31.2c0-14.9-9.8-25.7-23.4-25.7C78.4,5.5,68.7,16,68.7,31c0,15,9.8,25.6,23.4,25.6C105.7,56.6,115.3,46.2,115.3,31.2z"/>
			<path class="st3" d="M166.6,59.1l-19.4-23.3h-7.5v22.6c0,1.6-0.9,2.9-2.8,2.9h-0.7c-1.8,0-2.7-0.9-2.7-2.9V4.7
				c0-1.9,1.6-3.5,3.5-3.5h16.5c14,0,21.5,5.8,21.5,17.3c0,10.8-7,17.2-19.9,17.4l19.1,22.6c0.4,0.5-1.2,3-3.8,3
				C169.3,61.3,168,60.8,166.6,59.1z M139.7,30.4h14.3c9.9,0,14.5-4.7,14.5-11.8c0-7.8-5-11.8-14.9-11.8h-14V30.4z"/>
			<path class="st3" d="M183.5,31.2c0-18.3,12.4-31.2,29.9-31.2C230.9,0,243,12.7,243,31s-12.3,31.1-29.9,31.1
				S183.5,49.5,183.5,31.2z M236.5,31.2c0-14.9-9.8-25.7-23.4-25.7c-13.6,0-23.2,10.5-23.2,25.5c0,15,9.8,25.6,23.4,25.6
				S236.5,46.2,236.5,31.2z"/>
		</g>
	</g>
</g>
</svg>
