<?xml version="1.0" encoding="utf-8"?>
<!-- Generator: Adobe Illustrator 25.0.0, SVG Export Plug-In . SVG Version: 6.00 Build 0)  -->
<svg version="1.1" id="_x33_cd38589-f6b5-4ced-9f2c-9a4b79f01fae"
	 xmlns="http://www.w3.org/2000/svg" xmlns:xlink="http://www.w3.org/1999/xlink" x="0px" y="0px" width="800px" height="532.8px"
	 viewBox="0 0 800 532.8" style="enable-background:new 0 0 800 532.8;" xml:space="preserve">
<style type="text/css">
	.st0{fill:url(#SVGID_1_);}
	.st1{fill:#FFFFFF;}
	.st2{fill:#666A73;}
	.st3{fill:url(#SVGID_2_);}
	.st4{opacity:0.5;fill:#666A73;enable-background:new    ;}
	.st5{opacity:0.2;fill:#666A73;enable-background:new    ;}
	.st6{fill:#69F0AE;}
	.st7{fill:url(#SVGID_3_);}
	.st8{fill:url(#SVGID_4_);}
	.st9{fill:url(#SVGID_5_);}
	.st10{fill:#2196F3;}
	.st11{fill:url(#SVGID_6_);}
	.st12{fill:url(#SVGID_7_);}
	.st13{fill:url(#SVGID_8_);}
	.st14{fill:url(#SVGID_9_);}
	.st15{fill:url(#SVGID_10_);}
	.st16{fill:url(#SVGID_11_);}
	.st17{fill:url(#SVGID_12_);}
	.st18{fill:url(#SVGID_13_);}
	.st19{fill:url(#SVGID_14_);}
	.st20{fill:url(#SVGID_15_);}
	.st21{fill:url(#SVGID_16_);}
	.st22{fill:url(#SVGID_17_);}
	.st23{fill:url(#SVGID_18_);}
</style>
<g>
	<g>
		
			<linearGradient id="SVGID_1_" gradientUnits="userSpaceOnUse" x1="400" y1="7.1805" x2="400" y2="536.1805" gradientTransform="matrix(1 0 0 -1 0 538.1025)">
			<stop  offset="0" style="stop-color:#808080;stop-opacity:0.25"/>
			<stop  offset="0.54" style="stop-color:#808080;stop-opacity:0.12"/>
			<stop  offset="1" style="stop-color:#808080;stop-opacity:0.1"/>
		</linearGradient>
		<rect y="1.9" class="st0" width="800" height="529"/>
		<rect x="7" y="64.4" class="st1" width="784" height="450.5"/>
		<rect x="7" y="12.9" class="st2" width="784" height="51.5"/>
		
			<linearGradient id="SVGID_2_" gradientUnits="userSpaceOnUse" x1="400" y1="48.1805" x2="400" y2="441.1805" gradientTransform="matrix(1 0 0 -1 0 538.1025)">
			<stop  offset="0" style="stop-color:#808080;stop-opacity:0.25"/>
			<stop  offset="0.54" style="stop-color:#808080;stop-opacity:0.12"/>
			<stop  offset="1" style="stop-color:#808080;stop-opacity:0.1"/>
		</linearGradient>
		<rect x="18" y="96.9" class="st3" width="764" height="393"/>
		<rect x="27.5" y="103.9" class="st4" width="92" height="73.5"/>
		<rect x="120.5" y="103.9" class="st1" width="92" height="73.5"/>
		<rect x="213.5" y="103.9" class="st5" width="92" height="73.5"/>
		<rect x="306.5" y="103.9" class="st1" width="92" height="73.5"/>
		<rect x="399.5" y="103.9" class="st1" width="92" height="73.5"/>
		<rect x="492.5" y="103.9" class="st4" width="92" height="73.5"/>
		<rect x="585.5" y="103.9" class="st1" width="92" height="73.5"/>
		<rect x="678.5" y="103.9" class="st5" width="92" height="73.5"/>
		<rect x="27.5" y="178.9" class="st5" width="92" height="73.5"/>
		<rect x="120.5" y="178.9" class="st5" width="92" height="73.5"/>
		<rect x="213.5" y="178.9" class="st1" width="92" height="73.5"/>
		<rect x="306.5" y="178.9" class="st4" width="92" height="73.5"/>
		<rect x="399.5" y="178.9" class="st1" width="92" height="73.5"/>
		<rect x="492.5" y="178.9" class="st5" width="92" height="73.5"/>
		<rect x="585.5" y="178.9" class="st4" width="92" height="73.5"/>
		<rect x="678.5" y="178.9" class="st1" width="92" height="73.5"/>
		<rect x="27.5" y="252.9" class="st1" width="92" height="73.5"/>
		<rect x="120.5" y="252.9" class="st1" width="92" height="73.5"/>
		<rect x="213.5" y="252.9" class="st5" width="92" height="73.5"/>
		<rect x="306.5" y="252.9" class="st1" width="92" height="73.5"/>
		<rect x="399.5" y="252.9" class="st5" width="92" height="73.5"/>
		<rect x="492.5" y="252.9" class="st1" width="92" height="73.5"/>
		<rect x="585.5" y="252.9" class="st1" width="92" height="73.5"/>
		<rect x="678.5" y="252.9" class="st5" width="92" height="73.5"/>
		<rect x="27.5" y="326.9" class="st1" width="92" height="73.5"/>
		<rect x="120.5" y="326.9" class="st4" width="92" height="73.5"/>
		<rect x="213.5" y="326.9" class="st4" width="92" height="73.5"/>
		<rect x="306.5" y="326.9" class="st1" width="92" height="73.5"/>
		<rect x="399.5" y="326.9" class="st1" width="92" height="73.5"/>
		<rect x="492.5" y="326.9" class="st4" width="92" height="73.5"/>
		<rect x="585.5" y="326.9" class="st1" width="92" height="73.5"/>
		<rect x="678.5" y="326.9" class="st4" width="92" height="73.5"/>
		<rect x="27.5" y="401.9" class="st4" width="92" height="73.5"/>
		<rect x="120.5" y="401.9" class="st5" width="92" height="73.5"/>
		<rect x="213.5" y="401.9" class="st1" width="92" height="73.5"/>
		<rect x="306.5" y="401.9" class="st4" width="92" height="73.5"/>
		<rect x="399.5" y="401.9" class="st5" width="92" height="73.5"/>
		<rect x="492.5" y="401.9" class="st1" width="92" height="73.5"/>
		<rect x="585.5" y="401.9" class="st5" width="92" height="73.5"/>
		<rect x="678.5" y="401.9" class="st1" width="92" height="73.5"/>
		<rect x="35" y="259.9" class="st6" width="28" height="28"/>
		<rect x="313" y="111.9" class="st6" width="28" height="28"/>
		<rect x="310" y="259.9" class="st6" width="28" height="28"/>
		<rect x="405" y="330.9" class="st6" width="28" height="28"/>
		<rect x="590" y="259.9" class="st6" width="28" height="28"/>
	</g>
	<g>
		
			<linearGradient id="SVGID_3_" gradientUnits="userSpaceOnUse" x1="206.55" y1="92.6306" x2="206.55" y2="435.7305" gradientTransform="matrix(1 0 0 -1 0 538.1025)">
			<stop  offset="0" style="stop-color:#808080;stop-opacity:0.25"/>
			<stop  offset="0.54" style="stop-color:#808080;stop-opacity:0.12"/>
			<stop  offset="1" style="stop-color:#808080;stop-opacity:0.1"/>
		</linearGradient>
		<circle class="st7" cx="206.6" cy="273.9" r="171.5"/>
		<circle class="st2" cx="206.6" cy="273.9" r="166.9"/>
		<circle class="st1" cx="206.6" cy="273.9" r="135.6"/>
		
			<linearGradient id="SVGID_4_" gradientUnits="userSpaceOnUse" x1="206.55" y1="256.0706" x2="206.55" y2="272.2905" gradientTransform="matrix(1 0 0 -1 0 538.1025)">
			<stop  offset="0" style="stop-color:#808080;stop-opacity:0.25"/>
			<stop  offset="0.54" style="stop-color:#808080;stop-opacity:0.12"/>
			<stop  offset="1" style="stop-color:#808080;stop-opacity:0.1"/>
		</linearGradient>
		<circle class="st8" cx="206.6" cy="273.9" r="8.1"/>
		
			<linearGradient id="SVGID_5_" gradientUnits="userSpaceOnUse" x1="229.61" y1="263.1805" x2="229.61" y2="370.1805" gradientTransform="matrix(1 0 0 -1 0 538.1025)">
			<stop  offset="0" style="stop-color:#808080;stop-opacity:0.25"/>
			<stop  offset="0.54" style="stop-color:#808080;stop-opacity:0.12"/>
			<stop  offset="1" style="stop-color:#808080;stop-opacity:0.1"/>
		</linearGradient>
		<polygon class="st9" points="209.6,274.9 204.6,273.2 249.6,167.9 254.6,170.3 		"/>
		
			<rect x="173.1" y="220" transform="matrix(0.389 -0.9213 0.9213 0.389 -63.8976 347.1183)" class="st10" width="113.2" height="3.5"/>
		
			<linearGradient id="SVGID_6_" gradientUnits="userSpaceOnUse" x1="222.61" y1="208.1805" x2="222.61" y2="264.1805" gradientTransform="matrix(1 0 0 -1 0 538.1025)">
			<stop  offset="0" style="stop-color:#808080;stop-opacity:0.25"/>
			<stop  offset="0.54" style="stop-color:#808080;stop-opacity:0.12"/>
			<stop  offset="1" style="stop-color:#808080;stop-opacity:0.1"/>
		</linearGradient>
		<polygon class="st11" points="234.6,329.9 205.6,275.9 209.6,273.9 239.6,326.9 		"/>
		
			<rect x="220.4" y="271.4" transform="matrix(0.8787 -0.4775 0.4775 0.8787 -117.1264 142.7049)" class="st10" width="3.5" height="60.7"/>
		
			<linearGradient id="SVGID_7_" gradientUnits="userSpaceOnUse" x1="2163.813" y1="1885.3336" x2="2163.813" y2="1894.3636" gradientTransform="matrix(0.5 0.866 0.866 -0.5 -2620.8521 -717.5512)">
			<stop  offset="0" style="stop-color:#808080;stop-opacity:0.25"/>
			<stop  offset="0.54" style="stop-color:#808080;stop-opacity:0.12"/>
			<stop  offset="1" style="stop-color:#808080;stop-opacity:0.1"/>
		</linearGradient>
		<circle class="st12" cx="97.7" cy="211.4" r="4.5"/>
		
			<linearGradient id="SVGID_8_" gradientUnits="userSpaceOnUse" x1="281.0687" y1="73.5106" x2="281.0687" y2="82.5405" gradientTransform="matrix(1 0 0 -1 -182.1958 418.1167)">
			<stop  offset="0" style="stop-color:#808080;stop-opacity:0.25"/>
			<stop  offset="0.54" style="stop-color:#808080;stop-opacity:0.12"/>
			<stop  offset="1" style="stop-color:#808080;stop-opacity:0.1"/>
		</linearGradient>
		<circle class="st13" cx="98.9" cy="340.1" r="4.5"/>
		
			<linearGradient id="SVGID_9_" gradientUnits="userSpaceOnUse" x1="1465.1859" y1="725.4809" x2="1465.1859" y2="734.5224" gradientTransform="matrix(0.866 0.5 0.5 -0.866 -1553.679 177.0089)">
			<stop  offset="0" style="stop-color:#808080;stop-opacity:0.25"/>
			<stop  offset="0.54" style="stop-color:#808080;stop-opacity:0.12"/>
			<stop  offset="1" style="stop-color:#808080;stop-opacity:0.1"/>
		</linearGradient>
		<circle class="st14" cx="80.2" cy="277.4" r="4.5"/>
		
			<linearGradient id="SVGID_10_" gradientUnits="userSpaceOnUse" x1="2190.9285" y1="3237.1062" x2="2190.9285" y2="3246.1477" gradientTransform="matrix(0 1 1 0 -3097.7839 -2025.8545)">
			<stop  offset="0" style="stop-color:#808080;stop-opacity:0.25"/>
			<stop  offset="0.54" style="stop-color:#808080;stop-opacity:0.12"/>
			<stop  offset="1" style="stop-color:#808080;stop-opacity:0.1"/>
		</linearGradient>
		<circle class="st15" cx="143.8" cy="165.1" r="4.5"/>
		
			<linearGradient id="SVGID_11_" gradientUnits="userSpaceOnUse" x1="2174.7075" y1="3299.7019" x2="2174.7075" y2="3308.7434" gradientTransform="matrix(0 1 1 0 -3097.7852 -2025.8553)">
			<stop  offset="0" style="stop-color:#808080;stop-opacity:0.25"/>
			<stop  offset="0.54" style="stop-color:#808080;stop-opacity:0.12"/>
			<stop  offset="1" style="stop-color:#808080;stop-opacity:0.1"/>
		</linearGradient>
		<circle class="st16" cx="206.4" cy="148.9" r="4.5"/>
		
			<linearGradient id="SVGID_12_" gradientUnits="userSpaceOnUse" x1="2190.9231" y1="3362.2957" x2="2190.9231" y2="3371.3254" gradientTransform="matrix(0 1 1 0 -3097.7859 -2025.8441)">
			<stop  offset="0" style="stop-color:#808080;stop-opacity:0.25"/>
			<stop  offset="0.54" style="stop-color:#808080;stop-opacity:0.12"/>
			<stop  offset="1" style="stop-color:#808080;stop-opacity:0.1"/>
		</linearGradient>
		<circle class="st17" cx="269" cy="165.1" r="4.5"/>
		
			<linearGradient id="SVGID_13_" gradientUnits="userSpaceOnUse" x1="2237.2971" y1="3408.6533" x2="2237.2971" y2="3417.6948" gradientTransform="matrix(0 1 1 0 -3097.7798 -2025.8505)">
			<stop  offset="0" style="stop-color:#808080;stop-opacity:0.25"/>
			<stop  offset="0.54" style="stop-color:#808080;stop-opacity:0.12"/>
			<stop  offset="1" style="stop-color:#808080;stop-opacity:0.1"/>
		</linearGradient>
		<circle class="st18" cx="315.4" cy="211.4" r="4.5"/>
		
			<linearGradient id="SVGID_14_" gradientUnits="userSpaceOnUse" x1="2365.9609" y1="3407.501" x2="2365.9609" y2="3416.5425" gradientTransform="matrix(0 1 1 0 -3097.7817 -2025.8516)">
			<stop  offset="0" style="stop-color:#808080;stop-opacity:0.25"/>
			<stop  offset="0.54" style="stop-color:#808080;stop-opacity:0.12"/>
			<stop  offset="1" style="stop-color:#808080;stop-opacity:0.1"/>
		</linearGradient>
		<circle class="st19" cx="314.2" cy="340.1" r="4.5"/>
		
			<linearGradient id="SVGID_15_" gradientUnits="userSpaceOnUse" x1="2411.1692" y1="3359.9783" x2="2411.1692" y2="3369.0081" gradientTransform="matrix(0 1 1 0 -3097.7876 -2025.8567)">
			<stop  offset="0" style="stop-color:#808080;stop-opacity:0.25"/>
			<stop  offset="0.54" style="stop-color:#808080;stop-opacity:0.12"/>
			<stop  offset="1" style="stop-color:#808080;stop-opacity:0.1"/>
		</linearGradient>
		<circle class="st20" cx="266.7" cy="385.3" r="4.5"/>
		
			<linearGradient id="SVGID_16_" gradientUnits="userSpaceOnUse" x1="2425.0828" y1="3299.6992" x2="2425.0828" y2="3308.7407" gradientTransform="matrix(0 1 1 0 -3097.7876 -2025.8539)">
			<stop  offset="0" style="stop-color:#808080;stop-opacity:0.25"/>
			<stop  offset="0.54" style="stop-color:#808080;stop-opacity:0.12"/>
			<stop  offset="1" style="stop-color:#808080;stop-opacity:0.1"/>
		</linearGradient>
		<circle class="st21" cx="206.4" cy="399.2" r="4.5"/>
		
			<linearGradient id="SVGID_17_" gradientUnits="userSpaceOnUse" x1="2411.165" y1="3239.425" x2="2411.165" y2="3248.4551" gradientTransform="matrix(0 1 1 0 -3097.7839 -2025.8477)">
			<stop  offset="0" style="stop-color:#808080;stop-opacity:0.25"/>
			<stop  offset="0.54" style="stop-color:#808080;stop-opacity:0.12"/>
			<stop  offset="1" style="stop-color:#808080;stop-opacity:0.1"/>
		</linearGradient>
		<circle class="st22" cx="146.2" cy="385.3" r="4.5"/>
		<circle class="st6" cx="206.6" cy="148.7" r="3.5"/>
		<circle class="st6" cx="269.1" cy="165.5" r="3.5"/>
		<ellipse transform="matrix(0.866 -0.5 0.5 0.866 -63.467 185.7937)" class="st6" cx="315" cy="211.3" rx="3.5" ry="3.5"/>
		<ellipse transform="matrix(0.866 -0.5 0.5 0.866 -94.1747 203.5756)" class="st6" cx="332.8" cy="277.5" rx="3.5" ry="3.5"/>
		<ellipse transform="matrix(0.5 -0.866 0.866 0.5 -137.418 442.1887)" class="st6" cx="314.2" cy="340.1" rx="3.5" ry="3.5"/>
		<ellipse transform="matrix(0.866 -0.5 0.5 0.866 -156.8048 184.946)" class="st6" cx="266.7" cy="385.1" rx="3.5" ry="3.5"/>
		<circle class="st6" cx="144" cy="165.5" r="3.5"/>
		<ellipse transform="matrix(0.5 -0.866 0.866 0.5 -133.9466 190.6575)" class="st6" cx="98.1" cy="211.3" rx="3.5" ry="3.5"/>
		<linearGradient id="SVGID_18_" gradientUnits="userSpaceOnUse" x1="328.2691" y1="277.5201" x2="337.3106" y2="277.5201">
			<stop  offset="0" style="stop-color:#808080;stop-opacity:0.25"/>
			<stop  offset="0.54" style="stop-color:#808080;stop-opacity:0.12"/>
			<stop  offset="1" style="stop-color:#808080;stop-opacity:0.1"/>
		</linearGradient>
		<circle class="st23" cx="332.8" cy="277.5" r="4.5"/>
		<ellipse transform="matrix(0.866 -0.5 0.5 0.866 -156.8033 95.0011)" class="st6" cx="98.9" cy="340.1" rx="3.5" ry="3.5"/>
		<ellipse transform="matrix(0.5 -0.866 0.866 0.5 -260.2944 319.3152)" class="st6" cx="146.4" cy="385.1" rx="3.5" ry="3.5"/>
		<circle class="st6" cx="80.2" cy="277.4" r="3.5"/>
		<circle class="st6" cx="206.6" cy="399.1" r="3.5"/>
		<circle class="st6" cx="206.6" cy="273.9" r="5.8"/>
	</g>
</g>
</svg>
