<?xml version="1.0" encoding="utf-8"?>
<!-- Generator: Adobe Illustrator 24.0.1, SVG Export Plug-In . SVG Version: 6.00 Build 0)  -->
<svg version="1.1" id="Capa_1" xmlns="http://www.w3.org/2000/svg" xmlns:xlink="http://www.w3.org/1999/xlink" x="0px" y="0px"
	 width="1726.6px" height="572.5px" viewBox="0 0 1726.6 572.5" style="enable-background:new 0 0 1726.6 572.5;"
	 xml:space="preserve">
<style type="text/css">
	.st0{fill:#A8CC6F;}
	.st1{fill:#676B74;}
	.st2{fill:#D0D0D0;}
	.st3{fill:#FFFFFF;}
</style>
<g>
	<path class="st0" d="M400.6,535V328.6c0-22.2,14.1-35,33.3-35h69.9c92.5,0,148.4,51.6,148.4,136.9c0,85.7-57.6,139-150.5,139h-66.1
		C415.9,569.5,400.6,554.2,400.6,535z M501.2,515.8c55,0,88.3-31.1,88.3-84.9c0-52.9-33.3-83.6-87.4-83.6h-39.2v168.5H501.2z"/>
	<path class="st0" d="M691.8,535V328.6c0-22.2,12.4-35,32.8-35h154c19.6,0,29,9.8,29,26.4v2.1c0,17.5-9.4,26.4-29,26.4H755v54.6
		h90.4c20.5,0,29,9,29,24.3v1.7c0,16.6-9,25.6-29,25.6H755v60.1h125.8c19.6,0,29,8.5,29,24.7v2.6c0,17.1-9.4,27.3-29,27.3H724.7
		C704.2,569.5,691.8,557.2,691.8,535z"/>
	<path class="st0" d="M947.7,542.7V323c0-20,10.2-31.1,27.3-31.1h7.7c16.6,0,22.2,5.5,32,17.9L1134.1,474V320.5
		c0-18.8,9-28.6,26.9-28.6h6c17.5,0,26.4,9.8,26.4,28.6v219.6c0,20.5-10.2,31.1-26.9,31.1h-5.1c-16.6,0-21.3-4.3-30.3-15.4
		L1007,385.3v157.4c0,18.8-9,28.6-27.3,28.6h-6C956.7,571.2,947.7,561.4,947.7,542.7z"/>
	<path class="st0" d="M1224.5,321.3v-1.7c0-17.1,10.2-26,29-26h187.2c19.2,0,29,9,29,26v1.7c0,17.9-9.8,27.3-29,27.3h-61.8v194
		c0,18.8-9.8,28.6-27.7,28.6h-9c-17.5,0-26-9.8-26-28.6v-194h-62.7C1234.7,348.6,1224.5,339.2,1224.5,321.3z"/>
	<path class="st0" d="M1639.5,499.2h-101.1l-16.6,44.4c-7.7,21.8-20.9,29-34.5,29c-17.5,0-35-13.6-32.8-19.2l94.3-243.5
		c3.4-11.5,12.4-18.8,40.9-18.8c29,0,36.7,7.2,40.5,18.8l96.4,243.1c2.1,5.1-15.4,19.6-34.1,19.6c-13.6,0-27.7-7.2-36.3-29.9
		L1639.5,499.2z M1550.8,452.2h75.9l-38-100.2L1550.8,452.2z"/>
	<g>
		<path class="st1" d="M400.6,136.7C400.6,56.4,454.9,0,531.6,0c77.1,0,130.3,55.6,130.3,135.9s-54,136.3-131.1,136.3
			S400.6,217.1,400.6,136.7z M633.5,136.7c0-65.3-43-112.8-102.7-112.8c-59.7,0-101.9,46.3-101.9,112c0,65.7,43,112.4,102.7,112.4
			C591.3,248.3,633.5,202.5,633.5,136.7z"/>
		<path class="st1" d="M858.7,259.3L773.5,157h-32.9v99.4c0,6.9-4.1,12.6-12.2,12.6h-3.2c-7.7,0-11.8-4.1-11.8-12.6V20.3
			c0-8.5,6.9-15.4,15.4-15.4h72.2c61.3,0,94.5,25.6,94.5,75.9c0,47.5-30.8,75.5-87.2,76.3l84,99c1.6,2-5.3,13-16.6,13
			C870.4,269,864.8,266.6,858.7,259.3z M740.6,133.5h62.9c43.4,0,63.7-20.7,63.7-51.9c0-34.1-21.9-51.9-65.3-51.9h-61.3V133.5z"/>
		<path class="st1" d="M932.5,136.7C932.5,56.4,986.9,0,1063.6,0c77.1,0,130.3,55.6,130.3,135.9s-54,136.3-131.1,136.3
			S932.5,217.1,932.5,136.7z M1165.4,136.7c0-65.3-43-112.8-102.7-112.8c-59.6,0-101.9,46.3-101.9,112c0,65.7,43,112.4,102.7,112.4
			C1123.2,248.3,1165.4,202.5,1165.4,136.7z"/>
	</g>
	<path class="st2" d="M306.2,97.1c0-25-4.2-48.9-11.9-71.3C290,13.3,279.2,4.3,266.2,2.5c-34.6-4.8-70-2.5-103.9,6.8
		c-6,1.6-12.3,1.6-18.3,0C110.1-0.1,74.6-2.4,40,2.5C27,4.3,16.1,13.3,11.9,25.8C4.2,48.1,0,72.1,0,97.1
		c0,56.4,21.3,107.8,56.2,146.6c-16.5,22.4-28.3,84.9-28.3,158.5c0,92.4,18.7,167.4,41.7,167.4s41.7-74.9,41.7-167.4
		s18.7-119.8,41.7-119.8s41.7,27.4,41.7,119.8s18.7,167.4,41.7,167.4c23,0,41.7-74.9,41.7-167.4c0-73.6-11.8-136.1-28.3-158.5
		C284.9,204.8,306.2,153.4,306.2,97.1z"/>
	<g>
		<path class="st3" d="M235.4,14.4c5.3-0.1,10.6,0.1,15.8,0.8c5.3,0.7,10.5,1.8,15.6,3.7c5,1.9,9.9,4.5,13.9,8.3
			c4,3.7,6.9,8.5,8.1,13.5c0.2,0.9-0.3,1.7-1.2,1.9c-0.7,0.2-1.4-0.2-1.8-0.8l0,0c-2.2-4-5.5-7-9.3-9c-3.8-2-8-2.9-12.3-3.3
			c-4.3-0.4-8.7-0.2-13,0.5c-4.4,0.6-8.7,1.7-12.9,2.9c-5,1.5-10.3-1.4-11.8-6.4s1.4-10.3,6.4-11.8c0.8-0.2,1.6-0.4,2.5-0.4
			L235.4,14.4z"/>
	</g>
	<g>
		<path class="st3" d="M73.5,234.3c-10.7-6.1-19.6-14.4-26.5-23.7c-6.9-9.3-12-19.6-15.3-30.2c-0.3-0.8,0.2-1.7,1-2
			c0.7-0.2,1.5,0.1,1.8,0.7l0,0c5.5,9.2,12.5,17.4,20.4,24c7.9,6.6,16.8,11.4,26,14c5,1.4,7.9,6.7,6.5,11.7c-1.4,5-6.7,7.9-11.7,6.5
			c-0.7-0.2-1.4-0.5-2.1-0.9L73.5,234.3z"/>
	</g>
</g>
</svg>
