<?xml version="1.0" encoding="utf-8"?>
<!-- Generator: Adobe Illustrator 24.0.1, SVG Export Plug-In . SVG Version: 6.00 Build 0)  -->
<svg version="1.1" id="Capa_1" xmlns="http://www.w3.org/2000/svg" xmlns:xlink="http://www.w3.org/1999/xlink" x="0px" y="0px"
	 width="695.1px" height="695.1px" viewBox="0 0 695.1 695.1" style="enable-background:new 0 0 695.1 695.1;" xml:space="preserve"
	>
<style type="text/css">
	.st0{fill:#FFFFFF;stroke:#000000;stroke-width:1.5092;stroke-miterlimit:10;}
	.st1{fill:#686B75;}
	.st2{fill:none;stroke:#A8CC71;stroke-width:12.1314;stroke-linecap:round;stroke-linejoin:round;stroke-miterlimit:10;}
	.st3{fill:#A8CC71;}
	.st4{fill:none;}
	.st5{fill:#676B74;}
	.st6{fill:#A8CC6F;}
</style>
<circle class="st0" cx="347.5" cy="347.5" r="341.5"/>
<g>
	<path class="st1" d="M347.5,695.1c-46.9,0-92.4-9.2-135.3-27.3c-41.4-17.5-78.6-42.6-110.5-74.5c-31.9-31.9-57-69.1-74.5-110.5
		C9.2,440,0,394.5,0,347.5c0-3.4,2.7-6.1,6.1-6.1s6.1,2.7,6.1,6.1c0,45.3,8.9,89.2,26.4,130.6c16.9,39.9,41.1,75.8,71.9,106.6
		c30.8,30.8,66.7,55,106.6,71.9c41.3,17.5,85.3,26.4,130.6,26.4s89.2-8.9,130.6-26.4c39.9-16.9,75.8-41.1,106.6-71.9
		c30.8-30.8,55-66.7,71.9-106.6c17.5-41.3,26.4-85.3,26.4-130.6c0-3.4,2.7-6.1,6.1-6.1c3.3,0,6.1,2.7,6.1,6.1
		c0,46.9-9.2,92.4-27.3,135.3c-17.5,41.4-42.6,78.6-74.5,110.5c-31.9,31.9-69.1,57-110.5,74.5C440,685.9,394.5,695.1,347.5,695.1z"
		/>
	<path class="st2" d="M347.5,6.1"/>
	<path class="st3" d="M6.1,353.6c-3.4,0-6.1-2.7-6.1-6.1c0-46.9,9.2-92.4,27.3-135.3c17.5-41.4,42.6-78.6,74.5-110.5
		c31.9-31.9,69.1-57,110.5-74.5C255.1,9.2,300.6,0,347.5,0c3.4,0,6.1,2.7,6.1,6.1s-2.7,6.1-6.1,6.1c-45.3,0-89.2,8.9-130.6,26.4
		c-39.9,16.9-75.8,41.1-106.6,71.9C79.6,141.2,55.4,177,38.5,217C21,258.3,12.1,302.3,12.1,347.5C12.1,350.9,9.4,353.6,6.1,353.6z"
		/>
	<path class="st3" d="M347.5,695.1c-3.4,0-6.1-2.7-6.1-6.1c0-3.4,2.7-6.1,6.1-6.1c45.3,0,89.2-8.9,130.6-26.4
		c39.9-16.9,75.8-41.1,106.6-71.9c30.8-30.8,55-66.7,71.9-106.6c17.5-41.3,26.4-85.3,26.4-130.6c0-3.4,2.7-6.1,6.1-6.1
		c3.3,0,6.1,2.7,6.1,6.1c0,46.9-9.2,92.4-27.3,135.3c-17.5,41.4-42.6,78.6-74.5,110.5c-31.9,31.9-69.1,57-110.5,74.5
		C440,685.9,394.5,695.1,347.5,695.1z"/>
	<path class="st1" d="M689,353.6c-3.4,0-6.1-2.7-6.1-6.1c0-45.3-8.9-89.2-26.4-130.6c-16.9-39.9-41.1-75.8-71.9-106.6
		c-30.8-30.8-66.7-55-106.6-71.9C436.8,21,392.8,12.1,347.5,12.1c-3.4,0-6.1-2.7-6.1-6.1s2.7-6.1,6.1-6.1
		c46.9,0,92.4,9.2,135.3,27.3c41.4,17.5,78.6,42.6,110.5,74.5c31.9,31.9,57,69.1,74.5,110.5c18.1,42.9,27.3,88.4,27.3,135.3
		C695.1,350.9,692.4,353.6,689,353.6z"/>
</g>
<g>
	<g>
		<path class="st3" d="M176.6,571.3c-0.9,0-1.7-0.3-2.5-0.9l-0.8-0.6c-1.8-1.4-2.1-3.9-0.7-5.7c1.4-1.8,3.9-2.1,5.7-0.7l0.8,0.6
			c1.8,1.4,2.1,3.9,0.7,5.7C179,570.8,177.8,571.3,176.6,571.3z"/>
		<path class="st3" d="M159.8,557.2c-1,0-2-0.3-2.7-1.1c-0.5-0.5-1-1-1.6-1.4c-1.6-1.5-1.7-4.1-0.2-5.7c1.5-1.6,4.1-1.7,5.7-0.2
			c0.5,0.5,1,0.9,1.5,1.4c1.6,1.5,1.8,4.1,0.3,5.7C162,556.7,160.9,557.2,159.8,557.2z M143.5,540.9c-1.1,0-2.2-0.4-3-1.3
			c-0.5-0.5-1-1-1.4-1.6c-1.5-1.6-1.4-4.2,0.3-5.7c1.6-1.5,4.2-1.4,5.7,0.3c0.5,0.5,0.9,1,1.4,1.5c1.5,1.6,1.4,4.2-0.2,5.7
			C145.5,540.6,144.5,540.9,143.5,540.9z M128.5,523.4c-1.2,0-2.4-0.5-3.2-1.5c-0.4-0.6-0.9-1.1-1.3-1.7c-1.4-1.8-1-4.3,0.7-5.7
			c1.8-1.4,4.3-1,5.7,0.7c0.4,0.5,0.8,1.1,1.3,1.6c1.4,1.8,1.1,4.3-0.7,5.7C130.3,523.2,129.4,523.4,128.5,523.4z M115.1,504.8
			c-1.3,0-2.6-0.6-3.4-1.8c-0.4-0.6-0.8-1.2-1.2-1.8c-1.2-1.9-0.7-4.4,1.2-5.6c1.9-1.2,4.4-0.7,5.6,1.2c0.4,0.6,0.8,1.2,1.1,1.7
			c1.2,1.9,0.7,4.4-1.1,5.6C116.6,504.6,115.8,504.8,115.1,504.8z M103.2,485.1c-1.4,0-2.8-0.8-3.6-2.1c-0.3-0.6-0.7-1.2-1-1.9
			c-1.1-2-0.3-4.4,1.6-5.5c2-1.1,4.4-0.3,5.5,1.6c0.3,0.6,0.7,1.2,1,1.8c1.1,2,0.4,4.4-1.6,5.5C104.5,484.9,103.9,485.1,103.2,485.1
			z M93,464.4c-1.5,0-3-0.9-3.7-2.4c-0.3-0.6-0.6-1.3-0.9-1.9c-0.9-2,0-4.4,2.1-5.3c2-0.9,4.4,0,5.3,2.1c0.3,0.6,0.6,1.3,0.8,1.9
			c0.9,2,0,4.4-2.1,5.3C94.1,464.3,93.5,464.4,93,464.4z M84.5,443c-1.7,0-3.2-1-3.8-2.7c-0.2-0.7-0.5-1.3-0.7-2
			c-0.7-2.1,0.4-4.4,2.5-5.1c2.1-0.7,4.4,0.4,5.1,2.5c0.2,0.6,0.4,1.3,0.7,1.9c0.7,2.1-0.4,4.4-2.5,5.1C85.4,443,85,443,84.5,443z
			 M77.9,421c-1.8,0-3.4-1.2-3.9-3c-0.2-0.7-0.3-1.4-0.5-2.1c-0.5-2.2,0.8-4.4,2.9-4.9c2.2-0.5,4.4,0.8,4.9,2.9
			c0.2,0.7,0.3,1.3,0.5,2c0.6,2.2-0.7,4.4-2.9,4.9C78.6,421,78.2,421,77.9,421z M73.1,398.5c-1.9,0-3.6-1.4-4-3.4
			c-0.1-0.7-0.2-1.4-0.3-2.1c-0.4-2.2,1.1-4.3,3.3-4.6c2.2-0.4,4.3,1.1,4.6,3.3c0.1,0.7,0.2,1.4,0.3,2c0.4,2.2-1.1,4.3-3.3,4.7
			C73.6,398.5,73.3,398.5,73.1,398.5z M70.2,375.7c-2.1,0-3.8-1.6-4-3.7c-0.1-0.7-0.1-1.4-0.2-2.1c-0.2-2.2,1.5-4.2,3.7-4.3
			c2.2-0.2,4.2,1.5,4.3,3.7c0.1,0.7,0.1,1.4,0.2,2c0.2,2.2-1.5,4.2-3.7,4.4C70.4,375.7,70.3,375.7,70.2,375.7z"/>
		<path class="st3" d="M69.2,352.6c-2.2,0-4-1.8-4-4l0-1c0-2.2,1.8-4,4-4s4,1.8,4,4l0,1C73.2,350.8,71.4,352.6,69.2,352.6
			C69.2,352.6,69.2,352.6,69.2,352.6z"/>
	</g>
	<g>
		<path class="st4" d="M347.5,625.9"/>
	</g>
	<path class="st3" d="M625.9,349.6c-2.2,0-4-1.8-4-4c0-0.7,0-1.3,0-2c0-2.2,1.8-4.1,4-4.1c2.2,0,4.1,1.8,4.1,4c0,0.7,0,1.4,0,2
		C630,347.7,628.2,349.6,625.9,349.6C625.9,349.6,625.9,349.6,625.9,349.6z M624.9,327.4c-2.1,0-3.8-1.6-4-3.7
		c-0.1-0.7-0.1-1.3-0.2-2c-0.2-2.2,1.4-4.2,3.6-4.4c2.2-0.2,4.2,1.4,4.4,3.6c0.1,0.7,0.1,1.4,0.2,2c0.2,2.2-1.5,4.2-3.7,4.4
		C625.1,327.4,625,327.4,624.9,327.4z M622.1,305.3c-1.9,0-3.7-1.4-4-3.4c-0.1-0.7-0.2-1.3-0.3-2c-0.4-2.2,1.1-4.3,3.3-4.7
		c2.2-0.4,4.3,1.1,4.7,3.3c0.1,0.7,0.2,1.3,0.3,2c0.4,2.2-1.1,4.3-3.3,4.7C622.5,305.3,622.3,305.3,622.1,305.3z M617.5,283.6
		c-1.8,0-3.5-1.2-3.9-3.1c-0.2-0.6-0.3-1.3-0.5-1.9c-0.6-2.2,0.7-4.4,2.9-4.9c2.2-0.6,4.4,0.7,4.9,2.9c0.2,0.7,0.3,1.3,0.5,2
		c0.5,2.2-0.8,4.4-2.9,4.9C618.2,283.5,617.9,283.6,617.5,283.6z M611.3,262.2c-1.7,0-3.3-1.1-3.8-2.7c-0.2-0.6-0.4-1.3-0.6-1.9
		c-0.7-2.1,0.4-4.4,2.5-5.1c2.1-0.7,4.4,0.4,5.1,2.5c0.2,0.6,0.4,1.3,0.7,1.9c0.7,2.1-0.4,4.4-2.5,5.1
		C612.1,262.2,611.7,262.2,611.3,262.2z M603.3,241.5c-1.6,0-3.1-0.9-3.7-2.4c-0.3-0.6-0.5-1.2-0.8-1.8c-0.9-2,0-4.4,2.1-5.3
		c2-0.9,4.4,0,5.3,2.1c0.3,0.6,0.5,1.2,0.8,1.9c0.9,2.1-0.1,4.4-2.1,5.3C604.4,241.4,603.8,241.5,603.3,241.5z M593.7,221.4
		c-1.4,0-2.9-0.8-3.6-2.2c-0.3-0.6-0.6-1.2-0.9-1.8c-1.1-2-0.3-4.4,1.6-5.5c2-1.1,4.4-0.3,5.5,1.6c0.3,0.6,0.6,1.2,1,1.8
		c1,2,0.3,4.4-1.7,5.5C595,221.3,594.3,221.4,593.7,221.4z M582.5,202.2c-1.3,0-2.6-0.7-3.4-1.9c-0.4-0.6-0.7-1.1-1.1-1.7
		c-1.2-1.9-0.7-4.4,1.2-5.6c1.9-1.2,4.4-0.7,5.6,1.2c0.4,0.6,0.7,1.1,1.1,1.7c1.2,1.9,0.6,4.4-1.2,5.6
		C584,202,583.3,202.2,582.5,202.2z M569.8,184c-1.2,0-2.4-0.6-3.2-1.6c-0.4-0.5-0.8-1.1-1.2-1.6c-1.4-1.8-1-4.3,0.7-5.7
		c1.8-1.4,4.3-1,5.7,0.7c0.4,0.5,0.8,1.1,1.2,1.6c1.3,1.8,1,4.3-0.8,5.7C571.5,183.7,570.7,184,569.8,184z M555.7,166.8
		c-1.1,0-2.2-0.5-3-1.4c-0.4-0.5-0.9-1-1.3-1.5c-1.5-1.7-1.4-4.2,0.3-5.7c1.7-1.5,4.2-1.4,5.7,0.3c0.5,0.5,0.9,1,1.4,1.5
		c1.5,1.7,1.3,4.2-0.3,5.7C557.6,166.4,556.7,166.8,555.7,166.8z M540.3,150.8c-1,0-2-0.4-2.8-1.1c-0.5-0.5-1-0.9-1.4-1.4
		c-1.6-1.5-1.7-4.1-0.2-5.7c1.5-1.6,4.1-1.7,5.7-0.2c0.5,0.5,1,0.9,1.5,1.4c1.6,1.5,1.7,4.1,0.1,5.7
		C542.4,150.3,541.4,150.8,540.3,150.8z M523.7,136c-0.9,0-1.8-0.3-2.6-0.9c-0.5-0.4-1-0.8-1.5-1.3c-1.7-1.4-2-3.9-0.6-5.7
		s3.9-2,5.7-0.6c0.5,0.4,1.1,0.9,1.6,1.3c1.7,1.4,2,4,0.6,5.7C526,135.5,524.9,136,523.7,136z M505.9,122.6c-0.8,0-1.6-0.2-2.3-0.7
		c-0.5-0.4-1.1-0.8-1.6-1.1c-1.8-1.3-2.3-3.8-1.1-5.6c1.3-1.8,3.8-2.3,5.6-1.1c0.6,0.4,1.1,0.8,1.7,1.2c1.8,1.3,2.3,3.8,1,5.6
		C508.5,122,507.2,122.6,505.9,122.6z M487.2,110.7c-0.7,0-1.4-0.2-2-0.5c-0.6-0.3-1.2-0.7-1.7-1c-1.9-1.1-2.6-3.6-1.5-5.5
		c1.1-1.9,3.6-2.6,5.5-1.5c0.6,0.3,1.2,0.7,1.8,1c1.9,1.1,2.6,3.6,1.5,5.5C489.9,110,488.6,110.7,487.2,110.7z M467.5,100.3
		c-0.6,0-1.2-0.1-1.7-0.4c-0.6-0.3-1.2-0.6-1.8-0.9c-2-0.9-2.9-3.4-1.9-5.4c0.9-2,3.4-2.9,5.4-1.9c0.6,0.3,1.2,0.6,1.9,0.9
		c2,1,2.9,3.4,1.9,5.4C470.5,99.5,469,100.3,467.5,100.3z"/>
	<g>
		<path class="st4" d="M347.5,69.2"/>
	</g>
	<g>
		<path class="st4" d="M347.5,69.2"/>
	</g>
	<g>
		<path class="st3" d="M69.2,351.6c-2.2,0-4-1.8-4-4l0-0.6c0-2.2,1.8-4,4-4c0,0,0,0,0,0c2.2,0,4,1.8,4,4.1l0,0.6
			C73.2,349.8,71.4,351.6,69.2,351.6z"/>
		<path class="st3" d="M69.2,349.8C69.2,349.8,69.2,349.8,69.2,349.8c-2.3,0-4.1-1.8-4-4.1c0-0.4,0-0.8,0-1.2c0-2.2,1.8-4,4-4
			c0,0,0,0,0,0c2.2,0,4,1.9,4,4.1c0,0.4,0,0.8,0,1.2C73.2,348,71.4,349.8,69.2,349.8z"/>
		<path class="st3" d="M69.2,347.4C69.2,347.4,69.2,347.4,69.2,347.4c-2.3,0-4.1-1.9-4-4.1c0-0.4,0-0.8,0-1.2c0-0.2,0-0.4,0.1-0.6
			c0-0.2,0-0.4,0-0.6c0-0.4,0-0.8,0-1.2c0-0.2,0-0.4,0.1-0.6c0-0.2,0-0.4,0-0.6c0-0.4,0-0.8,0-1.2c0-0.2,0-0.4,0.1-0.6
			c0-0.2,0-0.4,0-0.6c0-0.4,0-0.8,0.1-1.2c0-0.2,0-0.4,0.1-0.6c0-0.2,0-0.4,0-0.6c0-0.4,0-0.8,0.1-1.2c0-0.2,0-0.4,0.1-0.6
			c0-0.2,0-0.4,0-0.6c0-0.4,0-0.8,0.1-1.2c0-0.2,0-0.4,0.1-0.6c0-0.2,0-0.4,0-0.6c0-0.4,0.1-0.8,0.1-1.2c0-0.2,0-0.4,0.1-0.6
			c0-0.2,0-0.4,0-0.6c0-0.4,0.1-0.8,0.1-1.2c0-0.2,0-0.4,0.1-0.6c0-0.2,0-0.4,0-0.6c0-0.4,0.1-0.8,0.1-1.2c0-0.2,0.1-0.4,0.1-0.6
			c0-0.2,0-0.4,0-0.6c0-0.4,0.1-0.8,0.1-1.2c0-0.2,0.1-0.4,0.1-0.6c0-0.2,0-0.4,0-0.6c0-0.4,0.1-0.8,0.1-1.2c0-0.2,0.1-0.4,0.1-0.6
			c0-0.2,0-0.4,0-0.6c0-0.4,0.1-0.8,0.1-1.2c0-0.2,0.1-0.4,0.1-0.6c0-0.2,0-0.4,0-0.6c0-0.4,0.1-0.8,0.1-1.2c0-0.2,0.1-0.4,0.1-0.6
			c0-0.2,0-0.4,0-0.6c0.1-0.4,0.1-0.8,0.2-1.2c0-0.2,0.1-0.4,0.1-0.6c0-0.2,0-0.4,0-0.6c0.1-0.4,0.1-0.8,0.2-1.2
			c0-0.2,0.1-0.4,0.1-0.6c0-0.2,0-0.4,0-0.6c0.1-0.4,0.1-0.8,0.2-1.2c0-0.2,0.1-0.4,0.1-0.6c0-0.2,0-0.4,0-0.6
			c0.1-0.4,0.1-0.8,0.2-1.2c0-0.2,0.1-0.4,0.1-0.6c0-0.2,0-0.4,0.1-0.6c0.1-0.4,0.1-0.8,0.2-1.2c0-0.2,0.1-0.4,0.1-0.6
			c0-0.2,0-0.4,0.1-0.6c0.1-0.4,0.1-0.8,0.2-1.2c0-0.2,0.1-0.4,0.2-0.6c0-0.2,0-0.4,0.1-0.6c0.1-0.4,0.1-0.8,0.2-1.2
			c0-0.2,0.1-0.4,0.2-0.6c0-0.2,0-0.4,0.1-0.6c0.1-0.4,0.2-0.8,0.2-1.2c0-0.2,0.1-0.4,0.2-0.6c0-0.2,0-0.4,0.1-0.6
			c0.1-0.4,0.2-0.8,0.2-1.2c0-0.2,0.1-0.4,0.2-0.6c0-0.2,0-0.4,0.1-0.6c0.1-0.4,0.2-0.8,0.3-1.2c0-0.2,0.1-0.4,0.2-0.6
			c0-0.2,0-0.4,0.1-0.6c0.1-0.4,0.2-0.8,0.3-1.2c0-0.2,0.1-0.4,0.2-0.6c0-0.2,0-0.4,0.1-0.6c0.1-0.4,0.2-0.8,0.3-1.2
			c0-0.2,0.1-0.4,0.2-0.6c0-0.2,0-0.4,0.1-0.6l0.3-1.2c0-0.2,0.1-0.4,0.2-0.6c0-0.2,0.1-0.4,0.1-0.6c0.1-0.4,0.2-0.8,0.3-1.2
			c0.1-0.2,0.1-0.4,0.2-0.6c0-0.2,0.1-0.4,0.1-0.6c0.1-0.4,0.2-0.8,0.3-1.2c0.1-0.2,0.1-0.4,0.2-0.6c0-0.2,0.1-0.4,0.1-0.6
			c0.1-0.4,0.2-0.8,0.3-1.2c0.1-0.2,0.1-0.4,0.2-0.6c0-0.2,0.1-0.4,0.1-0.6c0.1-0.4,0.2-0.8,0.3-1.2c0.1-0.2,0.1-0.4,0.2-0.6
			c0-0.2,0.1-0.4,0.1-0.6l0.3-1.2c0.1-0.2,0.1-0.4,0.2-0.6c0-0.2,0.1-0.4,0.1-0.6c0.1-0.4,0.2-0.8,0.3-1.2c0.1-0.2,0.1-0.4,0.2-0.6
			c0-0.2,0.1-0.4,0.1-0.6l0.4-1.2c0.1-0.2,0.1-0.4,0.2-0.6c0-0.2,0.1-0.4,0.1-0.6c0.1-0.4,0.2-0.8,0.4-1.2c0.1-0.2,0.1-0.4,0.2-0.6
			c0-0.2,0.1-0.4,0.1-0.6c0.1-0.4,0.3-0.8,0.4-1.2c0.1-0.2,0.1-0.4,0.2-0.6c0-0.2,0.1-0.4,0.1-0.6l0.4-1.2c0.1-0.2,0.1-0.4,0.2-0.6
			c0-0.2,0.1-0.4,0.2-0.6c0.1-0.4,0.3-0.8,0.4-1.2c0.1-0.2,0.2-0.4,0.2-0.6c0-0.2,0.1-0.4,0.2-0.6l0.4-1.2c0.1-0.2,0.2-0.4,0.3-0.6
			c0-0.2,0.1-0.4,0.2-0.6c0.1-0.4,0.3-0.8,0.4-1.2c0.1-0.2,0.2-0.4,0.3-0.6c0-0.2,0.1-0.4,0.2-0.6c0.1-0.4,0.3-0.8,0.4-1.2
			c0.1-0.2,0.2-0.4,0.3-0.6c0-0.2,0.1-0.4,0.2-0.6c0.1-0.4,0.3-0.8,0.4-1.1c0.1-0.2,0.2-0.4,0.3-0.6c0-0.2,0.1-0.4,0.2-0.6
			c0.1-0.4,0.3-0.8,0.4-1.1c0.1-0.2,0.2-0.4,0.3-0.6c0-0.2,0.1-0.4,0.2-0.6c0.2-0.4,0.3-0.8,0.5-1.1c0.1-0.2,0.2-0.4,0.3-0.6
			c0-0.2,0.1-0.4,0.2-0.6c0.2-0.4,0.3-0.8,0.5-1.1c0.1-0.2,0.2-0.4,0.3-0.5c0-0.2,0.1-0.4,0.2-0.6c0.2-0.4,0.3-0.8,0.5-1.1
			c0.1-0.2,0.2-0.4,0.3-0.5c0.1-0.2,0.1-0.4,0.2-0.6c0.2-0.4,0.3-0.8,0.5-1.1c0.1-0.2,0.2-0.4,0.3-0.5c0.1-0.2,0.1-0.4,0.2-0.6
			l0.5-1.1c0.1-0.2,0.2-0.4,0.3-0.5c0.1-0.2,0.1-0.4,0.2-0.6c0.2-0.4,0.3-0.7,0.5-1.1c0.1-0.2,0.2-0.4,0.3-0.5
			c0.1-0.2,0.1-0.4,0.2-0.6c0.2-0.4,0.3-0.7,0.5-1.1c0.1-0.2,0.2-0.4,0.3-0.5c0.1-0.2,0.1-0.4,0.2-0.6c0.2-0.4,0.4-0.7,0.5-1.1
			c0.1-0.2,0.2-0.4,0.3-0.5c0.1-0.2,0.1-0.4,0.2-0.6c0.2-0.4,0.4-0.7,0.5-1.1c0.1-0.2,0.2-0.4,0.3-0.5c0.1-0.2,0.1-0.4,0.2-0.6
			c0.2-0.4,0.4-0.7,0.5-1.1c0.1-0.2,0.2-0.4,0.3-0.5c0.1-0.2,0.1-0.4,0.2-0.6c0.2-0.4,0.4-0.7,0.6-1.1c0.1-0.2,0.2-0.4,0.3-0.5
			c0.1-0.2,0.1-0.4,0.2-0.6c0.2-0.4,0.4-0.7,0.6-1.1c0.1-0.2,0.2-0.4,0.3-0.5c0.1-0.2,0.1-0.4,0.2-0.6c0.2-0.4,0.4-0.7,0.6-1.1
			c0.1-0.2,0.2-0.4,0.3-0.5c0.1-0.2,0.2-0.4,0.3-0.6c0.2-0.4,0.4-0.7,0.6-1.1c0.1-0.2,0.2-0.4,0.3-0.5c0.1-0.2,0.2-0.4,0.3-0.6
			c0.2-0.4,0.4-0.7,0.6-1.1c0.1-0.2,0.2-0.4,0.3-0.5c0.1-0.2,0.2-0.4,0.3-0.6l0.6-1.1c0.1-0.2,0.2-0.4,0.3-0.5
			c0.1-0.2,0.2-0.4,0.3-0.6c0.2-0.4,0.4-0.7,0.6-1.1c0.1-0.2,0.2-0.3,0.3-0.5c0.1-0.2,0.2-0.4,0.3-0.6c0.2-0.4,0.4-0.7,0.6-1.1
			c0.1-0.2,0.2-0.3,0.4-0.5c0.1-0.2,0.2-0.4,0.3-0.6l0.6-1.1c0.1-0.2,0.2-0.3,0.4-0.5c0.1-0.2,0.2-0.4,0.3-0.6
			c0.2-0.3,0.4-0.7,0.6-1c0.1-0.2,0.2-0.3,0.4-0.5c0.1-0.2,0.2-0.4,0.3-0.5l0.6-1c0.1-0.2,0.2-0.3,0.4-0.5c0.1-0.2,0.2-0.4,0.3-0.5
			l0.7-1c0.1-0.2,0.2-0.3,0.4-0.5c0.1-0.2,0.2-0.4,0.3-0.5c0.2-0.3,0.4-0.7,0.7-1c0.1-0.2,0.2-0.3,0.4-0.5c0.1-0.2,0.2-0.4,0.3-0.5
			l0.7-1c0.1-0.2,0.2-0.3,0.4-0.5c0.1-0.2,0.2-0.4,0.3-0.5l0.7-1c0.1-0.2,0.2-0.3,0.4-0.5c0.1-0.2,0.2-0.4,0.3-0.5l0.7-1
			c0.1-0.2,0.2-0.3,0.4-0.5c0.1-0.2,0.2-0.4,0.3-0.5l0.7-1c0.1-0.2,0.3-0.3,0.4-0.5c0.1-0.2,0.2-0.4,0.3-0.5c0.2-0.3,0.5-0.7,0.7-1
			c0.1-0.2,0.3-0.3,0.4-0.5c0.1-0.2,0.2-0.4,0.3-0.5c0.2-0.3,0.5-0.7,0.7-1c0.1-0.2,0.3-0.3,0.4-0.5c0.1-0.2,0.2-0.4,0.3-0.5l0.7-1
			c0.1-0.2,0.3-0.3,0.4-0.5c0.1-0.2,0.2-0.4,0.3-0.5c0.2-0.3,0.5-0.7,0.7-1c0.1-0.2,0.3-0.3,0.4-0.5c0.1-0.2,0.2-0.4,0.3-0.5
			c0.2-0.3,0.5-0.6,0.7-1c0.1-0.2,0.3-0.3,0.4-0.5c0.1-0.2,0.2-0.3,0.3-0.5l0.8-1c0.1-0.2,0.3-0.3,0.4-0.5c0.1-0.2,0.2-0.3,0.3-0.5
			l0.8-1c0.1-0.2,0.3-0.3,0.4-0.5c0.1-0.2,0.2-0.3,0.3-0.5c0.3-0.3,0.5-0.6,0.8-1c0.1-0.2,0.3-0.3,0.4-0.4c0.1-0.2,0.2-0.3,0.4-0.5
			c0.3-0.3,0.5-0.6,0.8-0.9c0.1-0.2,0.3-0.3,0.4-0.4c0.1-0.2,0.2-0.3,0.4-0.5l0.8-0.9c0.1-0.2,0.3-0.3,0.4-0.4
			c0.1-0.2,0.2-0.3,0.4-0.5c0.3-0.3,0.5-0.6,0.8-0.9c0.1-0.2,0.3-0.3,0.4-0.4c0.1-0.2,0.2-0.3,0.4-0.5c0.3-0.3,0.5-0.6,0.8-0.9
			c0.1-0.2,0.3-0.3,0.4-0.4c0.1-0.2,0.2-0.3,0.4-0.5l0.8-0.9c0.1-0.2,0.3-0.3,0.4-0.4c0.1-0.2,0.2-0.3,0.4-0.5l0.8-0.9
			c0.1-0.2,0.3-0.3,0.4-0.4c0.1-0.2,0.2-0.3,0.4-0.5l0.8-0.9c0.1-0.2,0.3-0.3,0.4-0.4c0.1-0.2,0.2-0.3,0.4-0.5
			c0.3-0.3,0.6-0.6,0.8-0.9c0.1-0.2,0.3-0.3,0.4-0.4c0.1-0.2,0.2-0.3,0.4-0.5c0.3-0.3,0.6-0.6,0.8-0.9c0.1-0.2,0.3-0.3,0.5-0.4
			c0.1-0.2,0.2-0.3,0.4-0.5c0.3-0.3,0.6-0.6,0.9-0.9c0.1-0.1,0.3-0.3,0.5-0.4c0.1-0.2,0.3-0.3,0.4-0.5l0.9-0.9
			c0.1-0.1,0.3-0.3,0.5-0.4c0.1-0.2,0.3-0.3,0.4-0.5c0.3-0.3,0.6-0.6,0.9-0.9c0.1-0.1,0.3-0.3,0.5-0.4c0.1-0.2,0.3-0.3,0.4-0.5
			c0.3-0.3,0.6-0.6,0.9-0.9c0.1-0.1,0.3-0.3,0.5-0.4c0.1-0.2,0.3-0.3,0.4-0.5c0.3-0.3,0.6-0.6,0.9-0.9c0.1-0.1,0.3-0.3,0.5-0.4
			c0.1-0.2,0.3-0.3,0.4-0.5c0.3-0.3,0.6-0.6,0.9-0.8c0.2-0.1,0.3-0.3,0.5-0.4c0.1-0.2,0.3-0.3,0.4-0.5l0.9-0.8
			c0.2-0.1,0.3-0.3,0.5-0.4c0.1-0.2,0.3-0.3,0.4-0.5c0.3-0.3,0.6-0.6,0.9-0.8c0.2-0.1,0.3-0.3,0.5-0.4c0.1-0.2,0.3-0.3,0.4-0.4
			c0.3-0.3,0.6-0.5,0.9-0.8c0.2-0.1,0.3-0.3,0.5-0.4c0.1-0.2,0.3-0.3,0.4-0.4l0.9-0.8c0.2-0.1,0.3-0.3,0.5-0.4
			c0.1-0.2,0.3-0.3,0.4-0.4c0.3-0.3,0.6-0.5,0.9-0.8c0.2-0.1,0.3-0.3,0.5-0.4c0.1-0.2,0.3-0.3,0.4-0.4l0.9-0.8
			c0.2-0.1,0.3-0.3,0.5-0.4c0.1-0.2,0.3-0.3,0.4-0.4c0.3-0.3,0.6-0.5,0.9-0.8c0.2-0.1,0.3-0.3,0.5-0.4c0.1-0.2,0.3-0.3,0.4-0.4
			c0.3-0.3,0.6-0.5,0.9-0.8c0.2-0.1,0.3-0.3,0.5-0.4c0.1-0.2,0.3-0.3,0.4-0.4l0.9-0.8c0.2-0.1,0.3-0.2,0.5-0.4
			c0.1-0.1,0.3-0.3,0.4-0.4c0.3-0.3,0.6-0.5,1-0.8c0.2-0.1,0.3-0.2,0.5-0.3c0.1-0.1,0.3-0.3,0.5-0.4c0.3-0.3,0.6-0.5,1-0.8
			c0.2-0.1,0.3-0.2,0.5-0.3c0.1-0.1,0.3-0.3,0.5-0.4l1-0.7c0.2-0.1,0.3-0.2,0.5-0.3c0.1-0.1,0.3-0.3,0.5-0.4c0.3-0.2,0.7-0.5,1-0.7
			c0.2-0.1,0.3-0.2,0.5-0.3c0.1-0.1,0.3-0.3,0.5-0.4c0.3-0.2,0.7-0.5,1-0.7c0.2-0.1,0.3-0.2,0.5-0.3c0.1-0.1,0.3-0.3,0.5-0.4
			c0.3-0.2,0.7-0.5,1-0.7c0.2-0.1,0.3-0.2,0.5-0.3c0.1-0.1,0.3-0.3,0.5-0.4c0.3-0.2,0.7-0.5,1-0.7c0.2-0.1,0.3-0.2,0.5-0.3
			c0.1-0.1,0.3-0.3,0.5-0.4c0.3-0.2,0.7-0.5,1-0.7c0.2-0.1,0.3-0.2,0.5-0.3c0.1-0.1,0.3-0.3,0.5-0.4c0.3-0.2,0.7-0.5,1-0.7
			c0.2-0.1,0.3-0.2,0.5-0.3c0.1-0.1,0.3-0.3,0.5-0.4c0.3-0.2,0.7-0.5,1-0.7c0.2-0.1,0.4-0.2,0.5-0.3c0.1-0.1,0.3-0.3,0.5-0.4l1-0.7
			c0.2-0.1,0.4-0.2,0.5-0.3c0.1-0.1,0.3-0.3,0.5-0.4l1-0.7c0.2-0.1,0.4-0.2,0.5-0.3c0.2-0.1,0.3-0.3,0.5-0.4c0.3-0.2,0.7-0.4,1-0.7
			c0.2-0.1,0.4-0.2,0.5-0.3c0.2-0.1,0.3-0.3,0.5-0.4c0.3-0.2,0.7-0.4,1-0.7c0.2-0.1,0.4-0.2,0.5-0.3c0.2-0.1,0.3-0.3,0.5-0.4l1-0.6
			c0.2-0.1,0.4-0.2,0.5-0.3c0.2-0.1,0.3-0.3,0.5-0.4c0.3-0.2,0.7-0.4,1-0.6c0.2-0.1,0.4-0.2,0.5-0.3c0.2-0.1,0.3-0.2,0.5-0.4
			l1.1-0.6c0.2-0.1,0.4-0.2,0.6-0.3c0.2-0.1,0.3-0.2,0.5-0.3c0.4-0.2,0.7-0.4,1.1-0.6c0.2-0.1,0.4-0.2,0.5-0.3
			c0.2-0.1,0.3-0.2,0.5-0.3c0.4-0.2,0.7-0.4,1.1-0.6c0.2-0.1,0.4-0.2,0.6-0.3c0.2-0.1,0.3-0.2,0.5-0.3c0.4-0.2,0.7-0.4,1.1-0.6
			c0.2-0.1,0.4-0.2,0.6-0.3c0.2-0.1,0.3-0.2,0.5-0.3c0.4-0.2,0.7-0.4,1.1-0.6c0.2-0.1,0.4-0.2,0.6-0.3c0.2-0.1,0.3-0.2,0.5-0.3
			c0.4-0.2,0.7-0.4,1.1-0.6c0.2-0.1,0.4-0.2,0.6-0.2c0.2-0.1,0.3-0.2,0.5-0.3c0.4-0.2,0.7-0.4,1.1-0.6c0.2-0.1,0.4-0.2,0.6-0.2
			c0.2-0.1,0.3-0.2,0.5-0.3c0.4-0.2,0.7-0.4,1.1-0.6c0.2-0.1,0.4-0.2,0.6-0.2c0.2-0.1,0.3-0.2,0.5-0.3c0.4-0.2,0.7-0.4,1.1-0.6
			c0.2-0.1,0.4-0.2,0.6-0.2c0.2-0.1,0.3-0.2,0.5-0.3c0.4-0.2,0.7-0.4,1.1-0.5c0.2-0.1,0.4-0.2,0.6-0.2c0.2-0.1,0.3-0.2,0.5-0.3
			l1.1-0.5c2-1,4.4-0.1,5.4,1.9c1,2,0.1,4.4-1.9,5.4l-1.1,0.5c-0.2,0.1-0.4,0.2-0.6,0.2c-0.2,0.1-0.3,0.2-0.5,0.3
			c-0.4,0.2-0.7,0.4-1.1,0.5c-0.2,0.1-0.4,0.2-0.6,0.2c-0.2,0.1-0.3,0.2-0.5,0.3c-0.4,0.2-0.7,0.4-1.1,0.5c-0.2,0.1-0.4,0.2-0.5,0.2
			c-0.2,0.1-0.3,0.2-0.5,0.3c-0.4,0.2-0.7,0.4-1.1,0.5c-0.2,0.1-0.4,0.2-0.5,0.2c-0.2,0.1-0.3,0.2-0.5,0.3c-0.4,0.2-0.7,0.4-1,0.6
			c-0.2,0.1-0.4,0.2-0.5,0.2c-0.2,0.1-0.3,0.2-0.5,0.3c-0.3,0.2-0.7,0.4-1,0.6c-0.2,0.1-0.4,0.2-0.5,0.2c-0.2,0.1-0.3,0.2-0.5,0.3
			c-0.3,0.2-0.7,0.4-1,0.6c-0.2,0.1-0.4,0.2-0.5,0.2c-0.2,0.1-0.3,0.2-0.5,0.3c-0.3,0.2-0.7,0.4-1,0.6c-0.2,0.1-0.4,0.2-0.5,0.3
			c-0.2,0.1-0.3,0.2-0.5,0.3c-0.3,0.2-0.7,0.4-1,0.6c-0.2,0.1-0.4,0.2-0.5,0.3c-0.2,0.1-0.3,0.2-0.5,0.3c-0.3,0.2-0.7,0.4-1,0.6
			c-0.2,0.1-0.4,0.2-0.5,0.3c-0.2,0.1-0.3,0.2-0.5,0.3l-1,0.6c-0.2,0.1-0.4,0.2-0.5,0.3c-0.2,0.1-0.3,0.2-0.5,0.3
			c-0.3,0.2-0.7,0.4-1,0.6c-0.2,0.1-0.3,0.2-0.5,0.3c-0.2,0.1-0.3,0.2-0.5,0.4l-1,0.6c-0.2,0.1-0.3,0.2-0.5,0.3
			c-0.1,0.1-0.3,0.2-0.5,0.4c-0.3,0.2-0.7,0.4-1,0.6c-0.2,0.1-0.3,0.2-0.5,0.3c-0.1,0.1-0.3,0.2-0.5,0.4c-0.3,0.2-0.7,0.4-1,0.6
			c-0.2,0.1-0.3,0.2-0.5,0.3c-0.1,0.1-0.3,0.2-0.5,0.4l-1,0.7c-0.2,0.1-0.3,0.2-0.5,0.3c-0.1,0.1-0.3,0.3-0.5,0.4l-1,0.7
			c-0.2,0.1-0.3,0.2-0.5,0.3c-0.1,0.1-0.3,0.3-0.5,0.4c-0.3,0.2-0.7,0.4-1,0.7c-0.2,0.1-0.3,0.2-0.5,0.3c-0.1,0.1-0.3,0.3-0.5,0.4
			c-0.3,0.2-0.7,0.5-1,0.7c-0.2,0.1-0.3,0.2-0.5,0.3c-0.1,0.1-0.3,0.3-0.5,0.4c-0.3,0.2-0.6,0.5-1,0.7c-0.2,0.1-0.3,0.2-0.5,0.3
			c-0.1,0.1-0.3,0.3-0.5,0.4c-0.3,0.2-0.6,0.5-1,0.7c-0.2,0.1-0.3,0.2-0.5,0.3c-0.1,0.1-0.3,0.3-0.5,0.4l-1,0.7
			c-0.2,0.1-0.3,0.2-0.5,0.3c-0.1,0.1-0.3,0.3-0.5,0.4c-0.3,0.2-0.6,0.5-1,0.7c-0.2,0.1-0.3,0.2-0.5,0.3c-0.1,0.1-0.3,0.3-0.4,0.4
			c-0.3,0.2-0.6,0.5-0.9,0.7c-0.2,0.1-0.3,0.2-0.5,0.3c-0.1,0.1-0.3,0.3-0.4,0.4l-0.9,0.7c-0.2,0.1-0.3,0.2-0.5,0.3
			c-0.1,0.1-0.3,0.3-0.4,0.4c-0.3,0.2-0.6,0.5-0.9,0.7c-0.2,0.1-0.3,0.2-0.5,0.3c-0.1,0.1-0.3,0.3-0.4,0.4c-0.3,0.2-0.6,0.5-0.9,0.7
			c-0.2,0.1-0.3,0.2-0.5,0.3c-0.1,0.1-0.3,0.3-0.4,0.4l-0.9,0.8c-0.2,0.1-0.3,0.2-0.5,0.3c-0.1,0.1-0.3,0.3-0.4,0.4
			c-0.3,0.3-0.6,0.5-0.9,0.8c-0.2,0.1-0.3,0.2-0.5,0.3c-0.1,0.1-0.3,0.3-0.4,0.4c-0.3,0.3-0.6,0.5-0.9,0.8c-0.2,0.1-0.3,0.2-0.5,0.4
			c-0.1,0.1-0.3,0.3-0.4,0.4l-0.9,0.8c-0.2,0.1-0.3,0.3-0.5,0.4c-0.1,0.1-0.3,0.3-0.4,0.4c-0.3,0.3-0.6,0.5-0.9,0.8
			c-0.2,0.1-0.3,0.3-0.5,0.4c-0.1,0.2-0.3,0.3-0.4,0.4l-0.9,0.8c-0.2,0.1-0.3,0.3-0.5,0.4c-0.1,0.2-0.3,0.3-0.4,0.4
			c-0.3,0.3-0.6,0.5-0.9,0.8c-0.1,0.1-0.3,0.3-0.5,0.4c-0.1,0.2-0.3,0.3-0.4,0.4c-0.3,0.3-0.6,0.5-0.9,0.8c-0.1,0.1-0.3,0.3-0.5,0.4
			c-0.1,0.2-0.3,0.3-0.4,0.4l-0.9,0.8c-0.1,0.1-0.3,0.3-0.5,0.4c-0.1,0.2-0.3,0.3-0.4,0.4c-0.3,0.3-0.6,0.5-0.9,0.8
			c-0.1,0.1-0.3,0.3-0.5,0.4c-0.1,0.2-0.3,0.3-0.4,0.4c-0.3,0.3-0.6,0.6-0.9,0.8c-0.1,0.1-0.3,0.3-0.5,0.4c-0.1,0.2-0.3,0.3-0.4,0.5
			c-0.3,0.3-0.6,0.6-0.8,0.8c-0.1,0.1-0.3,0.3-0.5,0.4c-0.1,0.2-0.2,0.3-0.4,0.5c-0.3,0.3-0.6,0.6-0.8,0.8c-0.1,0.1-0.3,0.3-0.5,0.4
			c-0.1,0.2-0.2,0.3-0.4,0.5l-0.8,0.9c-0.1,0.1-0.3,0.3-0.4,0.4c-0.1,0.2-0.2,0.3-0.4,0.5c-0.3,0.3-0.6,0.6-0.8,0.9
			c-0.1,0.1-0.3,0.3-0.4,0.4c-0.1,0.2-0.2,0.3-0.4,0.5c-0.3,0.3-0.5,0.6-0.8,0.9c-0.1,0.1-0.3,0.3-0.4,0.4c-0.1,0.2-0.2,0.3-0.4,0.5
			c-0.3,0.3-0.5,0.6-0.8,0.9c-0.1,0.1-0.3,0.3-0.4,0.4c-0.1,0.2-0.2,0.3-0.4,0.5l-0.8,0.9c-0.1,0.1-0.3,0.3-0.4,0.4
			c-0.1,0.2-0.2,0.3-0.4,0.5l-0.8,0.9c-0.1,0.2-0.3,0.3-0.4,0.4c-0.1,0.2-0.2,0.3-0.4,0.5l-0.8,0.9c-0.1,0.2-0.3,0.3-0.4,0.4
			c-0.1,0.2-0.2,0.3-0.4,0.5c-0.3,0.3-0.5,0.6-0.8,0.9c-0.1,0.2-0.3,0.3-0.4,0.4c-0.1,0.2-0.2,0.3-0.4,0.5c-0.3,0.3-0.5,0.6-0.8,0.9
			c-0.1,0.2-0.3,0.3-0.4,0.4c-0.1,0.2-0.2,0.3-0.4,0.5l-0.8,0.9c-0.1,0.2-0.3,0.3-0.4,0.4c-0.1,0.2-0.2,0.3-0.3,0.5l-0.8,0.9
			c-0.1,0.2-0.3,0.3-0.4,0.4c-0.1,0.2-0.2,0.3-0.3,0.5c-0.2,0.3-0.5,0.6-0.7,0.9c-0.1,0.2-0.3,0.3-0.4,0.4c-0.1,0.2-0.2,0.3-0.3,0.5
			l-0.7,0.9c-0.1,0.2-0.3,0.3-0.4,0.4c-0.1,0.2-0.2,0.3-0.3,0.5l-0.7,0.9c-0.1,0.2-0.3,0.3-0.4,0.4c-0.1,0.2-0.2,0.3-0.3,0.5
			l-0.7,0.9c-0.1,0.2-0.3,0.3-0.4,0.4c-0.1,0.2-0.2,0.3-0.3,0.5c-0.2,0.3-0.5,0.6-0.7,1c-0.1,0.2-0.3,0.3-0.4,0.5
			c-0.1,0.2-0.2,0.3-0.3,0.5l-0.7,1c-0.1,0.2-0.2,0.3-0.4,0.5c-0.1,0.2-0.2,0.3-0.3,0.5l-0.7,1c-0.1,0.2-0.2,0.3-0.4,0.5
			c-0.1,0.2-0.2,0.3-0.3,0.5c-0.2,0.3-0.5,0.6-0.7,1c-0.1,0.2-0.2,0.3-0.4,0.5c-0.1,0.2-0.2,0.3-0.3,0.5l-0.7,1
			c-0.1,0.2-0.2,0.3-0.4,0.5c-0.1,0.2-0.2,0.3-0.3,0.5l-0.7,1c-0.1,0.2-0.2,0.3-0.4,0.5c-0.1,0.2-0.2,0.3-0.3,0.5l-0.7,1
			c-0.1,0.2-0.2,0.3-0.4,0.5c-0.1,0.2-0.2,0.4-0.3,0.5l-0.7,1c-0.1,0.2-0.2,0.3-0.4,0.5c-0.1,0.2-0.2,0.4-0.3,0.5
			c-0.2,0.3-0.4,0.7-0.6,1c-0.1,0.2-0.2,0.3-0.4,0.5c-0.1,0.2-0.2,0.4-0.3,0.5l-0.6,1c-0.1,0.2-0.2,0.3-0.4,0.5
			c-0.1,0.2-0.2,0.4-0.3,0.5l-0.6,1c-0.1,0.2-0.2,0.3-0.4,0.5c-0.1,0.2-0.2,0.4-0.3,0.5c-0.2,0.3-0.4,0.7-0.6,1
			c-0.1,0.2-0.2,0.3-0.3,0.5c-0.1,0.2-0.2,0.4-0.3,0.5l-0.6,1c-0.1,0.2-0.2,0.3-0.3,0.5c-0.1,0.2-0.2,0.4-0.3,0.5
			c-0.2,0.3-0.4,0.7-0.6,1c-0.1,0.2-0.2,0.3-0.3,0.5c-0.1,0.2-0.2,0.4-0.3,0.5c-0.2,0.3-0.4,0.7-0.6,1c-0.1,0.2-0.2,0.3-0.3,0.5
			c-0.1,0.2-0.2,0.4-0.3,0.5l-0.6,1c-0.1,0.2-0.2,0.3-0.3,0.5c-0.1,0.2-0.2,0.4-0.3,0.5c-0.2,0.3-0.4,0.7-0.6,1
			c-0.1,0.2-0.2,0.3-0.3,0.5c-0.1,0.2-0.2,0.4-0.2,0.5c-0.2,0.3-0.4,0.7-0.6,1c-0.1,0.2-0.2,0.3-0.3,0.5c-0.1,0.2-0.1,0.4-0.2,0.5
			c-0.2,0.4-0.4,0.7-0.6,1.1c-0.1,0.2-0.2,0.3-0.3,0.5c-0.1,0.2-0.1,0.4-0.2,0.6c-0.2,0.4-0.4,0.7-0.6,1.1c-0.1,0.2-0.2,0.3-0.3,0.5
			c-0.1,0.2-0.1,0.4-0.2,0.6c-0.2,0.4-0.4,0.7-0.5,1.1c-0.1,0.2-0.2,0.4-0.3,0.5c-0.1,0.2-0.1,0.4-0.2,0.6c-0.2,0.4-0.4,0.7-0.5,1.1
			c-0.1,0.2-0.2,0.4-0.3,0.5c-0.1,0.2-0.1,0.4-0.2,0.6c-0.2,0.4-0.3,0.7-0.5,1.1c-0.1,0.2-0.2,0.4-0.3,0.5c-0.1,0.2-0.1,0.4-0.2,0.6
			c-0.2,0.4-0.3,0.7-0.5,1.1c-0.1,0.2-0.2,0.4-0.3,0.5c-0.1,0.2-0.1,0.4-0.2,0.6c-0.2,0.4-0.3,0.7-0.5,1.1c-0.1,0.2-0.2,0.4-0.3,0.5
			c-0.1,0.2-0.1,0.4-0.2,0.6c-0.2,0.4-0.3,0.7-0.5,1.1c-0.1,0.2-0.2,0.4-0.3,0.5c-0.1,0.2-0.1,0.4-0.2,0.6l-0.5,1.1
			c-0.1,0.2-0.2,0.4-0.3,0.5c-0.1,0.2-0.1,0.4-0.2,0.6c-0.2,0.4-0.3,0.7-0.5,1.1c-0.1,0.2-0.2,0.4-0.3,0.5c0,0.2-0.1,0.4-0.2,0.6
			c-0.2,0.4-0.3,0.7-0.5,1.1c-0.1,0.2-0.2,0.4-0.3,0.5c0,0.2-0.1,0.4-0.2,0.6c-0.2,0.4-0.3,0.7-0.5,1.1c-0.1,0.2-0.2,0.4-0.3,0.5
			c0,0.2-0.1,0.4-0.2,0.6c-0.1,0.4-0.3,0.7-0.4,1.1c-0.1,0.2-0.2,0.4-0.3,0.5c0,0.2-0.1,0.4-0.2,0.6c-0.1,0.4-0.3,0.7-0.4,1.1
			c-0.1,0.2-0.2,0.4-0.3,0.5c0,0.2-0.1,0.4-0.2,0.6c-0.1,0.4-0.3,0.7-0.4,1.1c-0.1,0.2-0.2,0.4-0.3,0.5c0,0.2-0.1,0.4-0.2,0.6
			c-0.1,0.4-0.3,0.7-0.4,1.1c-0.1,0.2-0.2,0.4-0.2,0.5c0,0.2-0.1,0.4-0.2,0.6c-0.1,0.4-0.3,0.7-0.4,1.1c-0.1,0.2-0.2,0.4-0.2,0.5
			c0,0.2-0.1,0.4-0.2,0.6l-0.4,1.1c-0.1,0.2-0.1,0.4-0.2,0.6c0,0.2-0.1,0.4-0.2,0.6c-0.1,0.4-0.3,0.8-0.4,1.1
			c-0.1,0.2-0.1,0.4-0.2,0.6c0,0.2-0.1,0.4-0.1,0.6l-0.4,1.1c-0.1,0.2-0.1,0.4-0.2,0.6c0,0.2-0.1,0.4-0.1,0.6
			c-0.1,0.4-0.2,0.8-0.4,1.1c-0.1,0.2-0.1,0.4-0.2,0.6c0,0.2-0.1,0.4-0.1,0.6c-0.1,0.4-0.2,0.8-0.4,1.1c-0.1,0.2-0.1,0.4-0.2,0.6
			c0,0.2-0.1,0.4-0.1,0.6l-0.3,1.1c-0.1,0.2-0.1,0.4-0.2,0.6c0,0.2-0.1,0.4-0.1,0.6c-0.1,0.4-0.2,0.8-0.3,1.1
			c-0.1,0.2-0.1,0.4-0.2,0.6c0,0.2-0.1,0.4-0.1,0.6l-0.3,1.2c-0.1,0.2-0.1,0.4-0.2,0.6c0,0.2-0.1,0.4-0.1,0.6
			c-0.1,0.4-0.2,0.8-0.3,1.2c-0.1,0.2-0.1,0.4-0.2,0.6c0,0.2-0.1,0.4-0.1,0.6l-0.3,1.2c-0.1,0.2-0.1,0.4-0.2,0.6
			c0,0.2-0.1,0.4-0.1,0.6l-0.3,1.2c-0.1,0.2-0.1,0.4-0.2,0.6c0,0.2-0.1,0.4-0.1,0.6c-0.1,0.4-0.2,0.8-0.3,1.2c0,0.2-0.1,0.4-0.2,0.6
			c0,0.2,0,0.4-0.1,0.6l-0.3,1.2c0,0.2-0.1,0.4-0.2,0.6c0,0.2,0,0.4-0.1,0.6c-0.1,0.4-0.2,0.8-0.3,1.2c0,0.2-0.1,0.4-0.2,0.6
			c0,0.2,0,0.4-0.1,0.6c-0.1,0.4-0.2,0.8-0.3,1.2c0,0.2-0.1,0.4-0.2,0.6c0,0.2,0,0.4-0.1,0.6c-0.1,0.4-0.2,0.8-0.2,1.2
			c0,0.2-0.1,0.4-0.2,0.6c0,0.2,0,0.4-0.1,0.6c-0.1,0.4-0.2,0.8-0.2,1.2c0,0.2-0.1,0.4-0.2,0.6c0,0.2,0,0.4-0.1,0.6
			c-0.1,0.4-0.2,0.8-0.2,1.2c0,0.2-0.1,0.4-0.2,0.6c0,0.2,0,0.4-0.1,0.6c-0.1,0.4-0.1,0.8-0.2,1.2c0,0.2-0.1,0.4-0.1,0.6
			c0,0.2,0,0.4-0.1,0.6c-0.1,0.4-0.1,0.8-0.2,1.2c0,0.2-0.1,0.4-0.1,0.6c0,0.2,0,0.4-0.1,0.6c-0.1,0.4-0.1,0.8-0.2,1.2
			c0,0.2-0.1,0.4-0.1,0.6c0,0.2,0,0.4-0.1,0.6c-0.1,0.4-0.1,0.8-0.2,1.2c0,0.2-0.1,0.4-0.1,0.6c0,0.2,0,0.4,0,0.6
			c-0.1,0.4-0.1,0.8-0.2,1.2c0,0.2-0.1,0.4-0.1,0.6c0,0.2,0,0.4,0,0.6c-0.1,0.4-0.1,0.8-0.2,1.2c0,0.2-0.1,0.4-0.1,0.6
			c0,0.2,0,0.4,0,0.6c-0.1,0.4-0.1,0.8-0.2,1.2c0,0.2-0.1,0.4-0.1,0.6c0,0.2,0,0.4,0,0.6c0,0.4-0.1,0.8-0.1,1.2
			c0,0.2-0.1,0.4-0.1,0.6c0,0.2,0,0.4,0,0.6c0,0.4-0.1,0.8-0.1,1.2c0,0.2-0.1,0.4-0.1,0.6c0,0.2,0,0.4,0,0.6c0,0.4-0.1,0.8-0.1,1.2
			c0,0.2-0.1,0.4-0.1,0.6c0,0.2,0,0.4,0,0.6c0,0.4-0.1,0.8-0.1,1.2c0,0.2-0.1,0.4-0.1,0.6c0,0.2,0,0.4,0,0.6c0,0.4-0.1,0.8-0.1,1.2
			c0,0.2,0,0.4-0.1,0.6c0,0.2,0,0.4,0,0.6c0,0.4-0.1,0.8-0.1,1.2c0,0.2,0,0.4-0.1,0.6c0,0.2,0,0.4,0,0.6c0,0.4-0.1,0.8-0.1,1.2
			c0,0.2,0,0.4-0.1,0.6c0,0.2,0,0.4,0,0.6c0,0.4,0,0.8-0.1,1.2c0,0.2,0,0.4-0.1,0.6c0,0.2,0,0.4,0,0.6c0,0.4,0,0.8-0.1,1.2
			c0,0.2,0,0.4-0.1,0.6c0,0.2,0,0.4,0,0.6c0,0.4,0,0.8-0.1,1.2c0,0.2,0,0.4-0.1,0.6c0,0.2,0,0.4,0,0.6c0,0.4,0,0.8,0,1.2
			c0,0.2,0,0.4-0.1,0.6c0,0.2,0,0.4,0,0.6c0,0.4,0,0.8,0,1.2c0,0.2,0,0.4-0.1,0.6c0,0.2,0,0.4,0,0.6c0,0.4,0,0.8,0,1.2
			C73.2,345.6,71.4,347.4,69.2,347.4z"/>
		<path class="st3" d="M228.1,100.1c-1.5,0-3-0.9-3.7-2.3c-1-2-0.1-4.4,1.9-5.4l0.6-0.3c2-1,4.4-0.1,5.4,1.9c1,2,0.1,4.4-1.9,5.4
			l-0.5,0.3C229.3,100,228.7,100.1,228.1,100.1z"/>
	</g>
	<g>
		<path class="st4" d="M347.5,625.9"/>
	</g>
	<g>
		<path class="st3" d="M625.9,352.2C625.9,352.2,625.9,352.2,625.9,352.2c-2.2,0-4-1.8-4-4.1l0-0.6c0-2.2,1.8-4,4-4s4,1.8,4,4l0,0.6
			C630,350.4,628.2,352.2,625.9,352.2z"/>
		<path class="st3" d="M625.9,354.6C625.9,354.6,625.9,354.6,625.9,354.6c-2.3,0-4.1-1.9-4-4.1c0-0.4,0-0.8,0-1.2c0-2.2,1.9-4,4.1-4
			c2.2,0,4,1.8,4,4.1c0,0.4,0,0.8,0,1.2C629.9,352.9,628.1,354.6,625.9,354.6z"/>
		<path class="st3" d="M522.7,568c-1.2,0-2.3-0.5-3.1-1.5c-1.4-1.7-1.1-4.3,0.6-5.7c0.3-0.3,0.6-0.5,0.9-0.8
			c0.2-0.1,0.3-0.2,0.5-0.3c0.1-0.1,0.3-0.3,0.4-0.4c0.3-0.3,0.6-0.5,0.9-0.8c0.2-0.1,0.3-0.2,0.5-0.4c0.1-0.1,0.3-0.3,0.4-0.4
			l0.9-0.8c0.2-0.1,0.3-0.3,0.5-0.4c0.1-0.2,0.3-0.3,0.4-0.4c0.3-0.3,0.6-0.5,0.9-0.8c0.2-0.1,0.3-0.3,0.5-0.4
			c0.1-0.2,0.3-0.3,0.4-0.4c0.3-0.3,0.6-0.5,0.9-0.8c0.2-0.1,0.3-0.3,0.5-0.4c0.1-0.2,0.3-0.3,0.4-0.4c0.3-0.3,0.6-0.5,0.9-0.8
			c0.2-0.1,0.3-0.3,0.5-0.4c0.1-0.2,0.3-0.3,0.4-0.4c0.3-0.3,0.6-0.5,0.9-0.8c0.2-0.1,0.3-0.3,0.5-0.4c0.1-0.2,0.3-0.3,0.4-0.4
			c0.3-0.3,0.6-0.5,0.9-0.8c0.2-0.1,0.3-0.3,0.5-0.4c0.1-0.2,0.3-0.3,0.4-0.4c0.3-0.3,0.6-0.5,0.9-0.8c0.1-0.1,0.3-0.3,0.5-0.4
			c0.1-0.2,0.3-0.3,0.4-0.4c0.3-0.3,0.6-0.6,0.9-0.8c0.1-0.1,0.3-0.3,0.5-0.4c0.1-0.2,0.3-0.3,0.4-0.5c0.3-0.3,0.6-0.6,0.9-0.8
			c0.1-0.1,0.3-0.3,0.5-0.4c0.1-0.2,0.3-0.3,0.4-0.5c0.3-0.3,0.6-0.6,0.9-0.8c0.1-0.1,0.3-0.3,0.5-0.4c0.1-0.2,0.2-0.3,0.4-0.5
			c0.3-0.3,0.6-0.6,0.8-0.9c0.1-0.1,0.3-0.3,0.5-0.4c0.1-0.2,0.2-0.3,0.4-0.5c0.3-0.3,0.6-0.6,0.8-0.9c0.1-0.1,0.3-0.3,0.5-0.4
			c0.1-0.2,0.2-0.3,0.4-0.5l0.8-0.9c0.1-0.1,0.3-0.3,0.4-0.4c0.1-0.2,0.2-0.3,0.4-0.5c0.3-0.3,0.6-0.6,0.8-0.9
			c0.1-0.1,0.3-0.3,0.4-0.4c0.1-0.2,0.2-0.3,0.4-0.5c0.3-0.3,0.5-0.6,0.8-0.9c0.1-0.2,0.3-0.3,0.4-0.4c0.1-0.2,0.2-0.3,0.4-0.5
			c0.3-0.3,0.5-0.6,0.8-0.9c0.1-0.2,0.3-0.3,0.4-0.4c0.1-0.2,0.2-0.3,0.4-0.5c0.3-0.3,0.5-0.6,0.8-0.9c0.1-0.2,0.3-0.3,0.4-0.4
			c0.1-0.2,0.2-0.3,0.4-0.5c0.3-0.3,0.5-0.6,0.8-0.9c0.1-0.2,0.3-0.3,0.4-0.4c0.1-0.2,0.2-0.3,0.4-0.5c0.3-0.3,0.5-0.6,0.8-0.9
			c0.1-0.2,0.3-0.3,0.4-0.4c0.1-0.2,0.2-0.3,0.4-0.5l0.8-0.9c0.1-0.2,0.3-0.3,0.4-0.4c0.1-0.2,0.2-0.3,0.4-0.5l0.8-0.9
			c0.1-0.2,0.3-0.3,0.4-0.4c0.1-0.2,0.2-0.3,0.4-0.5c0.3-0.3,0.5-0.6,0.8-0.9c0.1-0.2,0.3-0.3,0.4-0.4c0.1-0.2,0.2-0.3,0.3-0.5
			c0.3-0.3,0.5-0.6,0.8-0.9c0.1-0.2,0.3-0.3,0.4-0.4c0.1-0.2,0.2-0.3,0.3-0.5c0.2-0.3,0.5-0.6,0.7-0.9c0.1-0.2,0.3-0.3,0.4-0.4
			c0.1-0.2,0.2-0.3,0.3-0.5c0.2-0.3,0.5-0.6,0.7-0.9c0.1-0.2,0.3-0.3,0.4-0.5c0.1-0.2,0.2-0.3,0.3-0.5l0.7-1
			c0.1-0.2,0.3-0.3,0.4-0.5c0.1-0.2,0.2-0.3,0.3-0.5c0.2-0.3,0.5-0.6,0.7-1c0.1-0.2,0.3-0.3,0.4-0.5c0.1-0.2,0.2-0.3,0.3-0.5l0.7-1
			c0.1-0.2,0.3-0.3,0.4-0.5c0.1-0.2,0.2-0.3,0.3-0.5c0.2-0.3,0.5-0.6,0.7-1c0.1-0.2,0.2-0.3,0.4-0.5c0.1-0.2,0.2-0.3,0.3-0.5l0.7-1
			c0.1-0.2,0.2-0.3,0.4-0.5c0.1-0.2,0.2-0.3,0.3-0.5l0.7-1c0.1-0.2,0.2-0.3,0.4-0.5c0.1-0.2,0.2-0.4,0.3-0.5c0.2-0.3,0.5-0.7,0.7-1
			c0.1-0.2,0.2-0.3,0.4-0.5c0.1-0.2,0.2-0.4,0.3-0.5c0.2-0.3,0.4-0.7,0.7-1c0.1-0.2,0.2-0.3,0.4-0.5c0.1-0.2,0.2-0.4,0.3-0.5l0.7-1
			c0.1-0.2,0.2-0.3,0.4-0.5c0.1-0.2,0.2-0.4,0.3-0.5c0.2-0.3,0.4-0.7,0.7-1c0.1-0.2,0.2-0.3,0.4-0.5c0.1-0.2,0.2-0.4,0.3-0.5l0.6-1
			c0.1-0.2,0.2-0.3,0.4-0.5c0.1-0.2,0.2-0.4,0.3-0.5c0.2-0.3,0.4-0.7,0.6-1c0.1-0.2,0.2-0.3,0.4-0.5c0.1-0.2,0.2-0.4,0.3-0.5
			c0.2-0.3,0.4-0.7,0.6-1c0.1-0.2,0.2-0.3,0.4-0.5c0.1-0.2,0.2-0.4,0.3-0.5c0.2-0.3,0.4-0.7,0.6-1c0.1-0.2,0.2-0.3,0.3-0.5
			c0.1-0.2,0.2-0.4,0.3-0.5c0.2-0.3,0.4-0.7,0.6-1c0.1-0.2,0.2-0.3,0.3-0.5c0.1-0.2,0.2-0.4,0.3-0.5c0.2-0.3,0.4-0.7,0.6-1
			c0.1-0.2,0.2-0.3,0.3-0.5c0.1-0.2,0.2-0.4,0.3-0.5l0.6-1.1c0.1-0.2,0.2-0.3,0.3-0.5c0.1-0.2,0.2-0.4,0.3-0.6
			c0.2-0.4,0.4-0.7,0.6-1.1c0.1-0.2,0.2-0.3,0.3-0.5c0.1-0.2,0.2-0.4,0.2-0.6c0.2-0.4,0.4-0.7,0.6-1.1c0.1-0.2,0.2-0.4,0.3-0.5
			c0.1-0.2,0.1-0.4,0.2-0.6c0.2-0.4,0.4-0.7,0.6-1.1c0.1-0.2,0.2-0.4,0.3-0.5c0.1-0.2,0.1-0.4,0.2-0.6c0.2-0.4,0.4-0.7,0.6-1.1
			c0.1-0.2,0.2-0.4,0.3-0.5c0.1-0.2,0.1-0.4,0.2-0.6c0.2-0.4,0.4-0.7,0.5-1.1c0.1-0.2,0.2-0.4,0.3-0.5c0.1-0.2,0.1-0.4,0.2-0.6
			c0.2-0.4,0.4-0.7,0.5-1.1c0.1-0.2,0.2-0.4,0.3-0.5c0.1-0.2,0.1-0.4,0.2-0.6c0.2-0.4,0.3-0.7,0.5-1.1c0.1-0.2,0.2-0.4,0.3-0.5
			c0.1-0.2,0.1-0.4,0.2-0.6c0.2-0.4,0.3-0.7,0.5-1.1c0.1-0.2,0.2-0.4,0.3-0.5c0.1-0.2,0.1-0.4,0.2-0.6c0.2-0.4,0.3-0.7,0.5-1.1
			c0.1-0.2,0.2-0.4,0.3-0.5c0.1-0.2,0.1-0.4,0.2-0.6l0.5-1.1c0.1-0.2,0.2-0.4,0.3-0.5c0.1-0.2,0.1-0.4,0.2-0.6
			c0.2-0.4,0.3-0.7,0.5-1.1c0.1-0.2,0.2-0.4,0.3-0.5c0.1-0.2,0.1-0.4,0.2-0.6c0.2-0.4,0.3-0.7,0.5-1.1c0.1-0.2,0.2-0.4,0.3-0.5
			c0-0.2,0.1-0.4,0.2-0.6c0.2-0.4,0.3-0.7,0.5-1.1c0.1-0.2,0.2-0.4,0.3-0.5c0-0.2,0.1-0.4,0.2-0.6c0.2-0.4,0.3-0.7,0.5-1.1
			c0.1-0.2,0.2-0.4,0.3-0.5c0-0.2,0.1-0.4,0.2-0.6c0.1-0.4,0.3-0.7,0.4-1.1c0.1-0.2,0.2-0.4,0.3-0.5c0-0.2,0.1-0.4,0.2-0.6
			c0.1-0.4,0.3-0.7,0.4-1.1c0.1-0.2,0.2-0.4,0.3-0.5c0-0.2,0.1-0.4,0.2-0.6c0.1-0.4,0.3-0.8,0.4-1.1c0.1-0.2,0.2-0.4,0.3-0.6
			c0-0.2,0.1-0.4,0.2-0.6c0.1-0.4,0.3-0.8,0.4-1.1c0.1-0.2,0.2-0.4,0.2-0.6c0-0.2,0.1-0.4,0.2-0.6c0.1-0.4,0.3-0.8,0.4-1.1
			c0.1-0.2,0.2-0.4,0.2-0.6c0-0.2,0.1-0.4,0.2-0.6c0.1-0.4,0.3-0.8,0.4-1.1c0.1-0.2,0.1-0.4,0.2-0.6c0-0.2,0.1-0.4,0.2-0.6l0.4-1.1
			c0.1-0.2,0.1-0.4,0.2-0.6c0-0.2,0.1-0.4,0.1-0.6c0.1-0.4,0.3-0.8,0.4-1.1c0.1-0.2,0.1-0.4,0.2-0.6c0-0.2,0.1-0.4,0.1-0.6
			c0.1-0.4,0.2-0.8,0.4-1.2c0.1-0.2,0.1-0.4,0.2-0.6c0-0.2,0.1-0.4,0.1-0.6c0.1-0.4,0.2-0.8,0.4-1.2c0.1-0.2,0.1-0.4,0.2-0.6
			c0-0.2,0.1-0.4,0.1-0.6c0.1-0.4,0.2-0.8,0.3-1.2c0.1-0.2,0.1-0.4,0.2-0.6c0-0.2,0.1-0.4,0.1-0.6c0.1-0.4,0.2-0.8,0.3-1.2
			c0.1-0.2,0.1-0.4,0.2-0.6c0-0.2,0.1-0.4,0.1-0.6c0.1-0.4,0.2-0.8,0.3-1.2c0.1-0.2,0.1-0.4,0.2-0.6c0-0.2,0.1-0.4,0.1-0.6
			c0.1-0.4,0.2-0.8,0.3-1.2c0.1-0.2,0.1-0.4,0.2-0.6c0-0.2,0.1-0.4,0.1-0.6c0.1-0.4,0.2-0.8,0.3-1.2c0.1-0.2,0.1-0.4,0.2-0.6
			c0-0.2,0.1-0.4,0.1-0.6c0.1-0.4,0.2-0.8,0.3-1.2c0-0.2,0.1-0.4,0.2-0.6c0-0.2,0.1-0.4,0.1-0.6c0.1-0.4,0.2-0.8,0.3-1.2
			c0-0.2,0.1-0.4,0.2-0.6c0-0.2,0-0.4,0.1-0.6c0.1-0.4,0.2-0.8,0.3-1.2c0-0.2,0.1-0.4,0.2-0.6c0-0.2,0-0.4,0.1-0.6
			c0.1-0.4,0.2-0.8,0.3-1.2c0-0.2,0.1-0.4,0.2-0.6c0-0.2,0-0.4,0.1-0.6c0.1-0.4,0.2-0.8,0.3-1.2c0-0.2,0.1-0.4,0.2-0.6
			c0-0.2,0-0.4,0.1-0.6c0.1-0.4,0.2-0.8,0.2-1.2c0-0.2,0.1-0.4,0.2-0.6c0-0.2,0-0.4,0.1-0.6c0.1-0.4,0.2-0.8,0.2-1.2
			c0-0.2,0.1-0.4,0.2-0.6c0-0.2,0-0.4,0.1-0.6c0.1-0.4,0.1-0.8,0.2-1.2c0-0.2,0.1-0.4,0.2-0.6c0-0.2,0-0.4,0.1-0.6
			c0.1-0.4,0.1-0.8,0.2-1.2c0-0.2,0.1-0.4,0.1-0.6c0-0.2,0-0.4,0.1-0.6c0.1-0.4,0.1-0.8,0.2-1.2c0-0.2,0.1-0.4,0.1-0.6
			c0-0.2,0-0.4,0.1-0.6c0.1-0.4,0.1-0.8,0.2-1.2c0-0.2,0.1-0.4,0.1-0.6c0-0.2,0-0.4,0-0.6c0.1-0.4,0.1-0.8,0.2-1.2
			c0-0.2,0.1-0.4,0.1-0.6c0-0.2,0-0.4,0-0.6c0.1-0.4,0.1-0.8,0.2-1.2c0-0.2,0.1-0.4,0.1-0.6c0-0.2,0-0.4,0-0.6
			c0.1-0.4,0.1-0.8,0.2-1.2c0-0.2,0.1-0.4,0.1-0.6c0-0.2,0-0.4,0-0.6c0-0.4,0.1-0.8,0.1-1.2c0-0.2,0.1-0.4,0.1-0.6
			c0-0.2,0-0.4,0-0.6c0-0.4,0.1-0.8,0.1-1.2c0-0.2,0.1-0.4,0.1-0.6c0-0.2,0-0.4,0-0.6c0-0.4,0.1-0.8,0.1-1.2c0-0.2,0.1-0.4,0.1-0.6
			c0-0.2,0-0.4,0-0.6c0-0.4,0.1-0.8,0.1-1.2c0-0.2,0.1-0.4,0.1-0.6c0-0.2,0-0.4,0-0.6c0-0.4,0.1-0.8,0.1-1.2c0-0.2,0-0.4,0.1-0.6
			c0-0.2,0-0.4,0-0.6c0-0.4,0.1-0.8,0.1-1.2c0-0.2,0-0.4,0.1-0.6c0-0.2,0-0.4,0-0.6c0-0.4,0.1-0.8,0.1-1.2c0-0.2,0-0.4,0.1-0.6
			c0-0.2,0-0.4,0-0.6c0-0.4,0-0.8,0.1-1.2c0-0.2,0-0.4,0.1-0.6c0-0.2,0-0.4,0-0.6c0-0.4,0-0.8,0.1-1.2c0-0.2,0-0.4,0.1-0.6
			c0-0.2,0-0.4,0-0.6c0-0.4,0-0.8,0.1-1.2c0-0.2,0-0.4,0.1-0.6c0-0.2,0-0.4,0-0.6c0-0.4,0-0.8,0-1.2c0-0.2,0-0.4,0.1-0.6
			c0-0.2,0-0.4,0-0.6c0-0.4,0-0.8,0-1.2c0-0.2,0-0.4,0.1-0.6c0-0.2,0-0.4,0-0.6c0-0.4,0-0.8,0-1.2c0-2.2,1.8-4,4-4c0,0,0,0,0.1,0
			c2.2,0,4,1.9,4,4.1c0,0.4,0,0.8,0,1.2c0,0.2,0,0.4-0.1,0.6c0,0.2,0,0.4,0,0.6c0,0.4,0,0.8,0,1.2c0,0.2,0,0.4-0.1,0.6
			c0,0.2,0,0.4,0,0.6c0,0.4,0,0.8,0,1.2c0,0.2,0,0.4-0.1,0.6c0,0.2,0,0.4,0,0.6c0,0.4,0,0.8-0.1,1.2c0,0.2,0,0.4-0.1,0.6
			c0,0.2,0,0.4,0,0.6c0,0.4,0,0.8-0.1,1.2c0,0.2,0,0.4-0.1,0.6c0,0.2,0,0.4,0,0.6c0,0.4,0,0.8-0.1,1.2c0,0.2,0,0.4-0.1,0.6
			c0,0.2,0,0.4,0,0.6c0,0.4-0.1,0.8-0.1,1.2c0,0.2,0,0.4-0.1,0.6c0,0.2,0,0.4,0,0.6c0,0.4-0.1,0.8-0.1,1.2c0,0.2,0,0.4-0.1,0.6
			c0,0.2,0,0.4,0,0.6c0,0.4-0.1,0.8-0.1,1.2c0,0.2-0.1,0.4-0.1,0.6c0,0.2,0,0.4,0,0.6c0,0.4-0.1,0.8-0.1,1.2c0,0.2-0.1,0.4-0.1,0.6
			c0,0.2,0,0.4,0,0.6c0,0.4-0.1,0.8-0.1,1.2c0,0.2-0.1,0.4-0.1,0.6c0,0.2,0,0.4,0,0.6c0,0.4-0.1,0.8-0.1,1.2c0,0.2-0.1,0.4-0.1,0.6
			c0,0.2,0,0.4,0,0.6c0,0.4-0.1,0.8-0.2,1.2c0,0.2-0.1,0.4-0.1,0.6c0,0.2,0,0.4,0,0.6c-0.1,0.4-0.1,0.8-0.2,1.2
			c0,0.2-0.1,0.4-0.1,0.6c0,0.2,0,0.4,0,0.6c-0.1,0.4-0.1,0.8-0.2,1.2c0,0.2-0.1,0.4-0.1,0.6c0,0.2,0,0.4,0,0.6
			c-0.1,0.4-0.1,0.8-0.2,1.2c0,0.2-0.1,0.4-0.1,0.6c0,0.2,0,0.4,0,0.6c-0.1,0.4-0.1,0.8-0.2,1.2c0,0.2-0.1,0.4-0.1,0.6
			c0,0.2,0,0.4-0.1,0.6c-0.1,0.4-0.1,0.8-0.2,1.2c0,0.2-0.1,0.4-0.2,0.6c0,0.2,0,0.4-0.1,0.6c-0.1,0.4-0.1,0.8-0.2,1.2
			c0,0.2-0.1,0.4-0.2,0.6c0,0.2,0,0.4-0.1,0.6c-0.1,0.4-0.2,0.8-0.2,1.2c0,0.2-0.1,0.4-0.2,0.6c0,0.2,0,0.4-0.1,0.6
			c-0.1,0.4-0.2,0.8-0.2,1.2c0,0.2-0.1,0.4-0.2,0.6c0,0.2,0,0.4-0.1,0.6c-0.1,0.4-0.2,0.8-0.2,1.2c0,0.2-0.1,0.4-0.2,0.6
			c0,0.2,0,0.4-0.1,0.6c-0.1,0.4-0.2,0.8-0.3,1.2c0,0.2-0.1,0.4-0.2,0.6c0,0.2,0,0.4-0.1,0.6c-0.1,0.4-0.2,0.8-0.3,1.2
			c0,0.2-0.1,0.4-0.2,0.6c0,0.2,0,0.4-0.1,0.6c-0.1,0.4-0.2,0.8-0.3,1.2c0,0.2-0.1,0.4-0.2,0.6c0,0.2,0,0.4-0.1,0.6
			c-0.1,0.4-0.2,0.8-0.3,1.2c-0.1,0.2-0.1,0.4-0.2,0.6c0,0.2-0.1,0.4-0.1,0.6c-0.1,0.4-0.2,0.8-0.3,1.2c-0.1,0.2-0.1,0.4-0.2,0.6
			c0,0.2-0.1,0.4-0.1,0.6c-0.1,0.4-0.2,0.8-0.3,1.2c-0.1,0.2-0.1,0.4-0.2,0.6c0,0.2-0.1,0.4-0.1,0.6c-0.1,0.4-0.2,0.8-0.3,1.2
			c-0.1,0.2-0.1,0.4-0.2,0.6c0,0.2-0.1,0.4-0.1,0.6c-0.1,0.4-0.2,0.8-0.3,1.2c-0.1,0.2-0.1,0.4-0.2,0.6c0,0.2-0.1,0.4-0.1,0.6
			c-0.1,0.4-0.2,0.8-0.3,1.2c-0.1,0.2-0.1,0.4-0.2,0.6c0,0.2-0.1,0.4-0.1,0.6c-0.1,0.4-0.2,0.8-0.4,1.2c-0.1,0.2-0.1,0.4-0.2,0.6
			c0,0.2-0.1,0.4-0.1,0.6c-0.1,0.4-0.2,0.8-0.4,1.2c-0.1,0.2-0.1,0.4-0.2,0.6c0,0.2-0.1,0.4-0.1,0.6c-0.1,0.4-0.3,0.8-0.4,1.2
			c-0.1,0.2-0.1,0.4-0.2,0.6c0,0.2-0.1,0.4-0.1,0.6c-0.1,0.4-0.3,0.8-0.4,1.2c-0.1,0.2-0.1,0.4-0.2,0.6c0,0.2-0.1,0.4-0.2,0.6
			l-0.4,1.2c-0.1,0.2-0.2,0.4-0.2,0.6c0,0.2-0.1,0.4-0.2,0.6c-0.1,0.4-0.3,0.8-0.4,1.2c-0.1,0.2-0.2,0.4-0.3,0.6
			c0,0.2-0.1,0.4-0.2,0.6c-0.1,0.4-0.3,0.8-0.4,1.2c-0.1,0.2-0.2,0.4-0.3,0.6c0,0.2-0.1,0.4-0.2,0.6c-0.1,0.4-0.3,0.8-0.4,1.2
			c-0.1,0.2-0.2,0.4-0.3,0.6c0,0.2-0.1,0.4-0.2,0.6c-0.1,0.4-0.3,0.8-0.4,1.2c-0.1,0.2-0.2,0.4-0.3,0.6c0,0.2-0.1,0.4-0.2,0.6
			c-0.1,0.4-0.3,0.8-0.4,1.2c-0.1,0.2-0.2,0.4-0.3,0.6c0,0.2-0.1,0.4-0.2,0.6c-0.2,0.4-0.3,0.8-0.5,1.2c-0.1,0.2-0.2,0.4-0.3,0.6
			c0,0.2-0.1,0.4-0.2,0.6c-0.2,0.4-0.3,0.8-0.5,1.2c-0.1,0.2-0.2,0.4-0.3,0.6c0,0.2-0.1,0.4-0.2,0.6c-0.2,0.4-0.3,0.8-0.5,1.1
			c-0.1,0.2-0.2,0.4-0.3,0.6c-0.1,0.2-0.1,0.4-0.2,0.6c-0.2,0.4-0.3,0.8-0.5,1.1c-0.1,0.2-0.2,0.4-0.3,0.5c-0.1,0.2-0.1,0.4-0.2,0.6
			c-0.2,0.4-0.3,0.8-0.5,1.1c-0.1,0.2-0.2,0.4-0.3,0.5c-0.1,0.2-0.1,0.4-0.2,0.6l-0.5,1.1c-0.1,0.2-0.2,0.4-0.3,0.5
			c-0.1,0.2-0.1,0.4-0.2,0.6c-0.2,0.4-0.3,0.8-0.5,1.1c-0.1,0.2-0.2,0.4-0.3,0.5c-0.1,0.2-0.1,0.4-0.2,0.6c-0.2,0.4-0.4,0.8-0.5,1.1
			c-0.1,0.2-0.2,0.4-0.3,0.5c-0.1,0.2-0.1,0.4-0.2,0.6c-0.2,0.4-0.4,0.7-0.5,1.1c-0.1,0.2-0.2,0.4-0.3,0.5c-0.1,0.2-0.1,0.4-0.2,0.6
			c-0.2,0.4-0.4,0.7-0.5,1.1c-0.1,0.2-0.2,0.4-0.3,0.5c-0.1,0.2-0.1,0.4-0.2,0.6c-0.2,0.4-0.4,0.7-0.6,1.1c-0.1,0.2-0.2,0.4-0.3,0.5
			c-0.1,0.2-0.1,0.4-0.2,0.6c-0.2,0.4-0.4,0.7-0.6,1.1c-0.1,0.2-0.2,0.4-0.3,0.5c-0.1,0.2-0.1,0.4-0.2,0.6c-0.2,0.4-0.4,0.7-0.6,1.1
			c-0.1,0.2-0.2,0.4-0.3,0.5c-0.1,0.2-0.2,0.4-0.2,0.6c-0.2,0.4-0.4,0.7-0.6,1.1c-0.1,0.2-0.2,0.4-0.3,0.5c-0.1,0.2-0.2,0.4-0.3,0.6
			c-0.2,0.4-0.4,0.7-0.6,1.1c-0.1,0.2-0.2,0.4-0.3,0.5c-0.1,0.2-0.2,0.4-0.3,0.6l-0.6,1.1c-0.1,0.2-0.2,0.4-0.3,0.5
			c-0.1,0.2-0.2,0.4-0.3,0.6c-0.2,0.4-0.4,0.7-0.6,1.1c-0.1,0.2-0.2,0.4-0.4,0.5c-0.1,0.2-0.2,0.4-0.3,0.6c-0.2,0.4-0.4,0.7-0.6,1.1
			c-0.1,0.2-0.2,0.4-0.4,0.5c-0.1,0.2-0.2,0.4-0.3,0.6c-0.2,0.4-0.4,0.7-0.6,1.1c-0.1,0.2-0.2,0.4-0.4,0.5c-0.1,0.2-0.2,0.4-0.3,0.6
			c-0.2,0.4-0.4,0.7-0.6,1.1c-0.1,0.2-0.2,0.3-0.4,0.5c-0.1,0.2-0.2,0.4-0.3,0.6c-0.2,0.4-0.4,0.7-0.7,1.1c-0.1,0.2-0.2,0.3-0.4,0.5
			c-0.1,0.2-0.2,0.4-0.3,0.6l-0.7,1c-0.1,0.2-0.2,0.3-0.4,0.5c-0.1,0.2-0.2,0.4-0.3,0.5c-0.2,0.3-0.4,0.7-0.7,1
			c-0.1,0.2-0.2,0.3-0.4,0.5c-0.1,0.2-0.2,0.4-0.3,0.5l-0.7,1c-0.1,0.2-0.2,0.3-0.4,0.5c-0.1,0.2-0.2,0.4-0.3,0.5
			c-0.2,0.3-0.5,0.7-0.7,1c-0.1,0.2-0.2,0.3-0.4,0.5c-0.1,0.2-0.2,0.4-0.3,0.5c-0.2,0.3-0.5,0.7-0.7,1c-0.1,0.2-0.2,0.3-0.4,0.5
			c-0.1,0.2-0.2,0.4-0.3,0.5l-0.7,1c-0.1,0.2-0.3,0.3-0.4,0.5c-0.1,0.2-0.2,0.4-0.3,0.5l-0.7,1c-0.1,0.2-0.3,0.3-0.4,0.5
			c-0.1,0.2-0.2,0.4-0.3,0.5c-0.2,0.3-0.5,0.7-0.7,1c-0.1,0.2-0.3,0.3-0.4,0.5c-0.1,0.2-0.2,0.4-0.3,0.5l-0.7,1
			c-0.1,0.2-0.3,0.3-0.4,0.5c-0.1,0.2-0.2,0.4-0.3,0.5c-0.2,0.3-0.5,0.7-0.7,1c-0.1,0.2-0.3,0.3-0.4,0.5c-0.1,0.2-0.2,0.4-0.3,0.5
			l-0.7,1c-0.1,0.2-0.3,0.3-0.4,0.5c-0.1,0.2-0.2,0.4-0.3,0.5c-0.3,0.3-0.5,0.7-0.8,1c-0.1,0.2-0.3,0.3-0.4,0.5
			c-0.1,0.2-0.2,0.4-0.3,0.5c-0.3,0.3-0.5,0.7-0.8,1c-0.1,0.2-0.3,0.3-0.4,0.5c-0.1,0.2-0.2,0.3-0.4,0.5c-0.3,0.3-0.5,0.6-0.8,1
			c-0.1,0.2-0.3,0.3-0.4,0.5c-0.1,0.2-0.2,0.3-0.4,0.5c-0.3,0.3-0.5,0.6-0.8,1c-0.1,0.2-0.3,0.3-0.4,0.4c-0.1,0.2-0.2,0.3-0.4,0.5
			c-0.3,0.3-0.5,0.6-0.8,1c-0.1,0.2-0.3,0.3-0.4,0.4c-0.1,0.2-0.2,0.3-0.4,0.5l-0.8,0.9c-0.1,0.2-0.3,0.3-0.4,0.4
			c-0.1,0.2-0.2,0.3-0.4,0.5c-0.3,0.3-0.5,0.6-0.8,0.9c-0.1,0.2-0.3,0.3-0.4,0.4c-0.1,0.2-0.2,0.3-0.4,0.5c-0.3,0.3-0.5,0.6-0.8,0.9
			c-0.1,0.2-0.3,0.3-0.4,0.4c-0.1,0.2-0.2,0.3-0.4,0.5c-0.3,0.3-0.6,0.6-0.8,0.9c-0.1,0.2-0.3,0.3-0.4,0.4c-0.1,0.2-0.2,0.3-0.4,0.5
			c-0.3,0.3-0.6,0.6-0.8,0.9c-0.1,0.2-0.3,0.3-0.5,0.4c-0.1,0.2-0.2,0.3-0.4,0.5c-0.3,0.3-0.6,0.6-0.8,0.9c-0.1,0.2-0.3,0.3-0.5,0.4
			c-0.1,0.2-0.2,0.3-0.4,0.5c-0.3,0.3-0.6,0.6-0.9,0.9c-0.1,0.2-0.3,0.3-0.5,0.4c-0.1,0.2-0.2,0.3-0.4,0.5l-0.9,0.9
			c-0.1,0.2-0.3,0.3-0.5,0.4c-0.1,0.2-0.3,0.3-0.4,0.5c-0.3,0.3-0.6,0.6-0.9,0.9c-0.1,0.1-0.3,0.3-0.5,0.4c-0.1,0.2-0.3,0.3-0.4,0.5
			c-0.3,0.3-0.6,0.6-0.9,0.9c-0.1,0.1-0.3,0.3-0.5,0.4c-0.1,0.2-0.3,0.3-0.4,0.5c-0.3,0.3-0.6,0.6-0.9,0.9c-0.2,0.1-0.3,0.3-0.5,0.4
			c-0.1,0.2-0.3,0.3-0.4,0.5c-0.3,0.3-0.6,0.6-0.9,0.9c-0.2,0.1-0.3,0.3-0.5,0.4c-0.1,0.2-0.3,0.3-0.4,0.5c-0.3,0.3-0.6,0.6-0.9,0.9
			c-0.2,0.1-0.3,0.3-0.5,0.4c-0.1,0.2-0.3,0.3-0.4,0.5c-0.3,0.3-0.6,0.6-0.9,0.8c-0.2,0.1-0.3,0.3-0.5,0.4c-0.1,0.2-0.3,0.3-0.4,0.5
			c-0.3,0.3-0.6,0.6-0.9,0.8c-0.2,0.1-0.3,0.3-0.5,0.4c-0.1,0.2-0.3,0.3-0.4,0.5c-0.3,0.3-0.6,0.6-0.9,0.8c-0.2,0.1-0.3,0.3-0.5,0.4
			c-0.1,0.2-0.3,0.3-0.4,0.4c-0.3,0.3-0.6,0.6-0.9,0.8c-0.2,0.1-0.3,0.3-0.5,0.4c-0.1,0.2-0.3,0.3-0.4,0.4c-0.3,0.3-0.6,0.5-0.9,0.8
			c-0.2,0.1-0.3,0.3-0.5,0.4c-0.1,0.2-0.3,0.3-0.4,0.4c-0.3,0.3-0.6,0.5-0.9,0.8c-0.2,0.1-0.3,0.3-0.5,0.4c-0.1,0.2-0.3,0.3-0.4,0.4
			l-0.9,0.8c-0.2,0.1-0.3,0.3-0.5,0.4c-0.1,0.2-0.3,0.3-0.4,0.4c-0.3,0.3-0.6,0.5-1,0.8c-0.2,0.1-0.3,0.3-0.5,0.4
			c-0.1,0.2-0.3,0.3-0.5,0.4c-0.3,0.3-0.6,0.5-1,0.8C524.5,567.7,523.6,568,522.7,568z"/>
		<path class="st3" d="M521.6,568.9c-1.2,0-2.4-0.5-3.2-1.5c-1.4-1.7-1.1-4.3,0.6-5.7l0.5-0.4c1.7-1.4,4.3-1.1,5.7,0.6
			c1.4,1.7,1.1,4.3-0.6,5.7l-0.5,0.4C523.3,568.6,522.4,568.9,521.6,568.9z"/>
	</g>
</g>
<g>
	<g>
		<circle class="st5" cx="271.5" cy="516.5" r="6.4"/>
		<circle class="st5" cx="431.6" cy="489.4" r="9.2"/>
		<g>
			<circle class="st6" cx="262.2" cy="489.4" r="9.2"/>
			<circle class="st6" cx="279.1" cy="538.5" r="4.5"/>
			<circle class="st6" cx="422.3" cy="516.5" r="6.4"/>
		</g>
		<circle class="st5" cx="414.7" cy="538.5" r="4.5"/>
	</g>
	<g>
		<g>
			<path class="st5" d="M382.2,191.8c11.8-5.6,40.6-17.7,53.9-20.2c20.1-3.7,30.1,0.8,44.6,20l0.1,0.2c12,15.1,19.2,41.1,19.2,69.5
				c0,20.3-7.4,40.6-17.7,64.2c5.1,4.5,9.8,9.1,14,13.9c12.7-28.5,22.2-52.3,22.2-78.1c0-15.5-2.3-54.5-23.1-80.8
				c-15.8-20.9-31.8-32.6-62.6-26.9c-16,3-46.7,16.1-58.4,21.7l-26.9,11.6v18.4c2,0,5.6,0,34.6-13.4L382.2,191.8z"/>
			<path class="st5" d="M439.2,428c-3.7,11.2-6.9,22.9-9.2,34.8l18.3,3.1c2.8-12.7,6.5-25.6,10.7-37.9H439.2z"/>
		</g>
		<g>
			<path class="st6" d="M236.1,428c4.2,12.3,7.9,25.1,10.7,37.9l18.3-3.1c-2.3-11.9-5.5-23.6-9.2-34.8H236.1z"/>
			<path class="st6" d="M320.7,175.2c-11.7-5.6-42.4-18.7-58.4-21.7c-30.8-5.7-46.8,6-62.6,26.9c-20.9,26.3-23.1,65.3-23.1,80.8
				c0,25.8,9.4,49.6,22.2,78.1c4.2-4.7,8.9-9.3,14-13.9c-10.4-23.7-17.7-43.9-17.7-64.2c0-28.4,7.2-54.4,19.2-69.5l0.1-0.2
				c14.5-19.2,24.5-23.7,44.6-20c13.3,2.5,42.1,14.6,53.9,20.2l0.1,0.1c29,13.4,32.7,13.4,34.6,13.4v-18.4L320.7,175.2z"/>
		</g>
	</g>
	<g>
		<g>
			<path class="st6" d="M204.2,404.2v-47c0-5.1,3.2-8,7.6-8h15.9c21.1,0,33.8,11.8,33.8,31.2c0,19.5-13.1,31.7-34.3,31.7h-15.1
				C207.7,412.1,204.2,408.6,204.2,404.2z M227.1,399.8c12.5,0,20.1-7.1,20.1-19.3c0-12-7.6-19-19.9-19h-8.9v38.4H227.1z"/>
			<path class="st6" d="M270.6,404.2v-47c0-5.1,2.8-8,7.5-8h35.1c4.5,0,6.6,2.2,6.6,6v0.5c0,4-2.1,6-6.6,6h-28.2v12.4h20.6
				c4.7,0,6.6,2,6.6,5.5v0.4c0,3.8-2,5.8-6.6,5.8h-20.6v13.7h28.7c4.5,0,6.6,1.9,6.6,5.6v0.6c0,3.9-2.1,6.2-6.6,6.2H278
				C273.4,412.1,270.6,409.3,270.6,404.2z"/>
			<path class="st6" d="M328.7,406v-50c0-4.6,2.3-7.1,6.2-7.1h1.7c3.8,0,5.1,1.3,7.3,4.1l27.2,37.4v-35c0-4.3,2-6.5,6.1-6.5h1.4
				c4,0,6,2.2,6,6.5v50c0,4.7-2.3,7.1-6.1,7.1h-1.2c-3.8,0-4.9-1-6.9-3.5l-28.3-38.9V406c0,4.3-2,6.5-6.2,6.5h-1.4
				C330.7,412.5,328.7,410.2,328.7,406z"/>
			<path class="st6" d="M391.8,355.5v-0.4c0-3.9,2.3-5.9,6.6-5.9H441c4.4,0,6.6,2,6.6,5.9v0.4c0,4.1-2.2,6.2-6.6,6.2h-14.1V406
				c0,4.3-2.2,6.5-6.3,6.5h-2c-4,0-5.9-2.2-5.9-6.5v-44.2h-14.3C394.1,361.8,391.8,359.6,391.8,355.5z"/>
			<path class="st6" d="M486.3,396.1h-23l-3.8,10.1c-1.7,5-4.8,6.6-7.9,6.6c-4,0-8-3.1-7.5-4.4l21.5-55.5c0.8-2.6,2.8-4.3,9.3-4.3
				c6.6,0,8.4,1.7,9.2,4.3l22,55.4c0.5,1.2-3.5,4.5-7.8,4.5c-3.1,0-6.3-1.7-8.3-6.8L486.3,396.1z M466.1,385.4h17.3l-8.6-22.8
				L466.1,385.4z"/>
		</g>
		<g>
			<path class="st5" d="M266.5,313.5c0-18.3,12.4-31.2,29.9-31.2c17.6,0,29.7,12.7,29.7,31s-12.3,31.1-29.9,31.1
				C278.6,344.4,266.5,331.8,266.5,313.5z M319.5,313.5c0-14.9-9.8-25.7-23.4-25.7c-13.6,0-23.2,10.5-23.2,25.5
				c0,15,9.8,25.6,23.4,25.6C309.9,338.9,319.5,328.5,319.5,313.5z"/>
			<path class="st5" d="M370.8,341.4l-19.4-23.3h-7.5v22.6c0,1.6-0.9,2.9-2.8,2.9h-0.7c-1.8,0-2.7-0.9-2.7-2.9V287
				c0-1.9,1.6-3.5,3.5-3.5h16.5c14,0,21.5,5.8,21.5,17.3c0,10.8-7,17.2-19.9,17.4l19.1,22.6c0.4,0.5-1.2,3-3.8,3
				C373.5,343.6,372.2,343.1,370.8,341.4z M343.9,312.7h14.3c9.9,0,14.5-4.7,14.5-11.8c0-7.8-5-11.8-14.9-11.8h-14V312.7z"/>
			<path class="st5" d="M387.7,313.5c0-18.3,12.4-31.2,29.9-31.2c17.6,0,29.7,12.7,29.7,31s-12.3,31.1-29.9,31.1
				C399.8,344.4,387.7,331.8,387.7,313.5z M440.7,313.5c0-14.9-9.8-25.7-23.4-25.7c-13.6,0-23.2,10.5-23.2,25.5
				c0,15,9.8,25.6,23.4,25.6S440.7,328.5,440.7,313.5z"/>
		</g>
	</g>
</g>
</svg>
