<?xml version="1.0" encoding="utf-8"?>
<!-- Generator: Adobe Illustrator 24.0.1, SVG Export Plug-In . SVG Version: 6.00 Build 0)  -->
<svg version="1.1" id="Capa_1" xmlns="http://www.w3.org/2000/svg" xmlns:xlink="http://www.w3.org/1999/xlink" x="0px" y="0px"
	 width="622.1px" height="394.6px" viewBox="0 0 622.1 394.6" style="enable-background:new 0 0 622.1 394.6;" xml:space="preserve"
	>
<style type="text/css">
	.st0{fill:#A9D36D;}
	.st1{fill:#666A73;}
</style>
<path class="st0" d="M0.3,378.4v-96.8c0-10.4,6.6-16.4,15.6-16.4h32.8c43.4,0,69.6,24.2,69.6,64.2c0,40.2-27,65.2-70.6,65.2h-31
	C7.5,394.6,0.3,387.4,0.3,378.4z M47.5,369.4c25.8,0,41.4-14.6,41.4-39.8c0-24.8-15.6-39.2-41-39.2H29.5v79H47.5z"/>
<path class="st0" d="M136.9,378.4v-96.8c0-10.4,5.8-16.4,15.4-16.4h72.2c9.2,0,13.6,4.6,13.6,12.4v1c0,8.2-4.4,12.4-13.6,12.4h-58
	v25.6h42.4c9.6,0,13.6,4.2,13.6,11.4v0.8c0,7.8-4.2,12-13.6,12h-42.4V369h59c9.2,0,13.6,4,13.6,11.6v1.2c0,8-4.4,12.8-13.6,12.8
	h-73.2C142.7,394.6,136.9,388.8,136.9,378.4z"/>
<path class="st0" d="M256.8,382V279c0-9.4,4.8-14.6,12.8-14.6h3.6c7.8,0,10.4,2.6,15,8.4l56,77v-72c0-8.8,4.2-13.4,12.6-13.4h2.8
	c8.2,0,12.4,4.6,12.4,13.4v103c0,9.6-4.8,14.6-12.6,14.6H357c-7.8,0-10-2-14.2-7.2l-58.2-80V382c0,8.8-4.2,13.4-12.8,13.4H269
	C261,395.4,256.8,390.8,256.8,382z"/>
<path class="st0" d="M386.6,278.2v-0.8c0-8,4.8-12.2,13.6-12.2H488c9,0,13.6,4.2,13.6,12.2v0.8c0,8.4-4.6,12.8-13.6,12.8h-29v91
	c0,8.8-4.6,13.4-13,13.4h-4.2c-8.2,0-12.2-4.6-12.2-13.4v-91h-29.4C391.4,291,386.6,286.6,386.6,278.2z"/>
<path class="st0" d="M581.2,361.6h-47.4l-7.8,20.8c-3.6,10.2-9.8,13.6-16.2,13.6c-8.2,0-16.4-6.4-15.4-9l44.2-114.2
	c1.6-5.4,5.8-8.8,19.2-8.8c13.6,0,17.2,3.4,19,8.8l45.2,114c1,2.4-7.2,9.2-16,9.2c-6.4,0-13-3.4-17-14L581.2,361.6z M539.6,339.6
	h35.6l-17.8-47L539.6,339.6z"/>
<path class="st0" d="M498.9,78.8c21.3,5.1,34.6,26.1,30.3,47.4c-0.1,0.4-0.1,0.9-0.2,1.3c0,0.1,0,0.2,0,0.2
	c-25.6,88.2-53.2,115-71.4,110.7c-14.7-3.5-5.2-25.7-5.2-43.6c0-2.7-1.8-4.6-4-5.1c-2.2-0.5-4.6,0.3-5.9,2.7
	c-8.1,16-9.4,40.1-24.3,36.5c-17.7-4.2-30-38.9-14.9-124.1c0-0.2,0.1-0.4,0.1-0.7c0.2-2.1,0.5-4.2,1-6.3c5.2-21.8,27.1-35.2,48.9-30
	c7,1.7,13.2,5.1,18.1,9.7c0.9,0.9,2.1,1.5,3.3,1.7s2.5,0.3,3.7-0.1C484.9,77.4,491.9,77.1,498.9,78.8"/>
<ellipse transform="matrix(1.524059e-02 -0.9999 0.9999 1.524059e-02 437.6079 512.4073)" class="st0" cx="478.9" cy="34" rx="34" ry="15.2"/>
<g>
	<path class="st0" d="M520.6,27.6c-7-1.5-14.3-1.3-21.4,0.6c0.4,2.5,0.6,5,0.5,7.6c-0.2,12.4-5.3,23.5-13.4,31.6
		c5.5-1.4,10.9-3.9,15.8-7.4C513,52.1,519.4,40.1,520.6,27.6z"/>
</g>
<g>
	<path class="st1" d="M0.3,191.7c0-37.7,25.5-64.1,61.5-64.1c36.2,0,61.1,26.1,61.1,63.7s-25.3,63.9-61.5,63.9S0.3,229.4,0.3,191.7z
		 M109.5,191.7c0-30.6-20.2-52.9-48.1-52.9c-28,0-47.8,21.7-47.8,52.5c0,30.8,20.2,52.7,48.1,52.7C89.7,244,109.5,222.5,109.5,191.7
		z"/>
	<path class="st1" d="M215.1,249.1l-40-47.9h-15.4v46.6c0,3.2-1.9,5.9-5.7,5.9h-1.5c-3.6,0-5.5-1.9-5.5-5.9V137.1
		c0-4,3.2-7.2,7.2-7.2h33.9c28.7,0,44.3,12,44.3,35.6c0,22.3-14.5,35.4-40.9,35.8l39.4,46.4c0.8,1-2.5,6.1-7.8,6.1
		C220.6,253.7,217.9,252.6,215.1,249.1z M159.7,190.2h29.5c20.4,0,29.9-9.7,29.9-24.4c0-16-10.3-24.4-30.6-24.4h-28.7V190.2z"/>
	<path class="st1" d="M249.7,191.7c0-37.7,25.5-64.1,61.5-64.1c36.2,0,61.1,26.1,61.1,63.7s-25.3,63.9-61.5,63.9
		S249.7,229.4,249.7,191.7z M358.9,191.7c0-30.6-20.2-52.9-48.1-52.9c-28,0-47.8,21.7-47.8,52.5c0,30.8,20.2,52.7,48.1,52.7
		C339.1,244,358.9,222.5,358.9,191.7z"/>
</g>
</svg>
