<?xml version="1.0" encoding="utf-8"?>
<!-- Generator: Adobe Illustrator 24.0.1, SVG Export Plug-In . SVG Version: 6.00 Build 0)  -->
<svg version="1.1" id="Layer_1" xmlns="http://www.w3.org/2000/svg" xmlns:xlink="http://www.w3.org/1999/xlink" x="0px" y="0px"
	 width="3138.5px" height="1328.3px" viewBox="0 0 3138.5 1328.3" style="enable-background:new 0 0 3138.5 1328.3;"
	 xml:space="preserve">
<style type="text/css">
	.st0{fill:#666A73;}
	.st1{fill:#A9D36D;}
</style>
<g>
	<g>
		<path class="st0" d="M1846.7,429V236.3c0-12.7,8-21,19.9-21h135.8c11.6,0,17.4,5.8,17.4,15.6v2.2c0,10.1-5.8,15.6-17.4,15.6H1884
			v65.5h91.6c12,0,17.4,5.1,17.4,14.8v1.1c0,10.1-5.8,15.6-17.4,15.6H1884v71h120.6c11.6,0,17,5.1,17,14.8v1.8
			c0,10.5-5.4,16.3-17,16.3h-138C1854.7,449.6,1846.7,441.7,1846.7,429z"/>
		<path class="st0" d="M2062.9,429V236.3c0-12.7,8.7-21,19.9-21h57.2c79.7,0,127.1,43.5,127.1,116.6s-48.5,117.7-128.9,117.7h-54.7
			C2072,449.6,2062.9,440.2,2062.9,429z M2139,417.4c57.2,0,90.5-31.1,90.5-85.1c0-53.2-33.7-84.7-90.2-84.7h-39.5v169.8L2139,417.4
			L2139,417.4z"/>
		<path class="st0" d="M2302.3,333c0-71.7,49.6-122.4,118.8-122.4c69.9,0,118.4,50,118.4,121.7s-49.2,122-118.8,122
			C2350.8,454.4,2302.3,404.4,2302.3,333z M2501.8,333c0-52.1-33.7-89.4-81.1-89.4c-47.4,0-80.8,36.2-80.8,88.7
			c0,52.1,33.7,89.1,81.1,89.1C2468.5,421.4,2501.8,385.2,2501.8,333z"/>
		<path class="st0" d="M2574.6,333c0-71.7,48.9-122.4,119.1-122.4c58.7,0,88.4,33.3,88.4,49.6c0,17.4-21,21.7-21.7,20.3
			c-13.4-23.5-39.8-36.2-66.3-36.2c-47.4,0-80.8,35.9-80.8,88c0,51.8,34.4,88.4,81.5,88.4c31.5,0,57.9-15.6,67.7-40.9
			c0.7-1.8,23.2,2.5,23.2,19.9s-30.8,54.7-93.1,54.7C2623.1,454.4,2574.6,404.4,2574.6,333z"/>
	</g>
	<g>
		<path class="st0" d="M1446.2,699.3c0-47.8,32.1-81.4,78.2-81.4c37.4,0,58.2,21.7,58.2,30.9c0,8.4-9.2,10.6-9.7,9.9
			c-9.9-17.1-30.2-26.6-49-26.6c-35.7,0-60.8,27.5-60.8,66.6c0,38.9,25.8,66.9,61.3,66.9c23.2,0,43.2-11.8,50.5-30.7
			c0.2-1,10.6,1.2,10.6,9.7c0,10.1-21.5,35.2-61.8,35.2C1478.1,779.9,1446.2,746.9,1446.2,699.3z"/>
		<path class="st0" d="M1603.6,747.6c0-26.8,26.8-37.9,79.9-39.1h2.4v-4.1c0-19.8-11.6-30.7-32.3-30.7c-18.6,0-30.4,9.4-36.7,21.2
			c0,0.2-8.9-0.7-8.9-9.2c0-8.2,16.4-26.6,46.8-26.6c29.2,0,46.6,16.9,46.6,44.7v72.4c0,0.5-2.4,1.7-5.3,1.7
			c-5.3,0-9.9-2.7-9.9-15.2v-4.3c-9.2,13.3-24.6,21.2-43,21.2C1618.1,779.7,1603.6,766.9,1603.6,747.6z M1685.9,731.4v-10.6
			l-6.8,0.2c-39.3,1.4-59.6,8.4-59.6,26.6c0,11.6,9.4,19.1,25.1,19.1C1668.3,766.7,1685.9,751.9,1685.9,731.4z"/>
		<path class="st0" d="M1748.2,759.4v11.1c0,5.8-2.7,7.5-6.8,7.5h-1.7c-4.1,0-7-1.7-7-7.5V614.3c0-0.5,2.4-1.7,5.3-1.7
			c5.3,0,10.4,2.7,10.4,15.2v53.1c10.4-13.8,23.7-21.7,42.7-21.7c30.4,0,54.3,23.7,54.3,60.1c0,36.2-23.4,60.6-55.3,60.6
			C1769.5,779.9,1754.7,770.3,1748.2,759.4z M1829.6,719.6c0-27-16.9-46.6-40.1-46.6c-20,0-34,10.6-41.3,27.3v27
			c0,22,19.1,38.9,40.8,38.9C1813.4,766.2,1829.6,747.3,1829.6,719.6z"/>
		<path class="st0" d="M1868.9,623c0-7,3.6-10.4,10.6-10.4c6.8,0,10.1,3.4,10.1,10.4s-3.6,10.4-10.6,10.4
			C1872.5,633.4,1868.9,629.8,1868.9,623z M1871.3,770.5V668.6c0-5.8,2.9-7.5,7-7.5h1.7c4.1,0,7,1.7,7,7.5v101.9
			c0,5.8-2.9,7.5-7,7.5h-1.7C1874.2,778,1871.3,776.3,1871.3,770.5z"/>
		<path class="st0" d="M1936,680.2c8-12.3,21.2-21,39.1-21c30.4,0,45.6,20.3,45.6,50.7v60.6c0,5.8-2.9,7.5-7,7.5h-1.7
			c-4.1,0-7-1.7-7-7.5v-59.6c0-22.9-11.3-36.9-30.9-36.9c-17.9,0-31.1,9.9-37.9,24.4v72.2c0,5.8-2.9,7.5-7,7.5h-1.7
			c-4.1,0-7-1.7-7-7.5V662.9c0-0.5,2.4-1.7,5.3-1.7c5.3,0,10.1,2.7,10.1,15.2v3.8H1936z"/>
		<path class="st0" d="M2044.4,720.1c0-35,24.6-60.8,57.9-60.8c32.3,0,53.6,22.9,53.6,57.9v1.4c0,4.3-1.7,5.3-6.5,5.3h-89.3
			c1.2,24.6,19.1,42,43.7,42c22.5,0,32.6-9.7,39.3-20.5c0.5-0.7,9.2,1.4,9.2,8.9c0,8-17.4,25.6-48.5,25.6
			C2068.8,779.9,2044.4,755.3,2044.4,720.1z M2060.6,710.4h78.7c-1.4-22.7-15.4-37.4-36.9-37.4C2080.6,673,2064,688.4,2060.6,710.4z
			"/>
		<path class="st0" d="M2169.5,669.9v-1.4c0-4.1,1.7-6.3,7.5-6.3h10.6v-20c0-5.8,2.9-7.5,7-7.5h1.7c4.1,0,6.8,1.7,6.8,7.5v20h30.6
			c5.8,0,7.5,2.2,7.5,6.3v1.4c0,4.1-1.7,6.3-7.5,6.3H2203v65.4c0,16.9,4.3,24.9,17.1,24.9c8,0,13.8-3.4,17.9-8.4
			c0.5-0.5,5.3,1.7,5.3,7.7c0,6.5-8.5,14.2-23.7,14.2c-22.4,0-32.1-12.8-32.1-36.7v-67.1h-10.6
			C2171.2,676.1,2169.5,674,2169.5,669.9z"/>
		<path class="st0" d="M2297.2,719.8c0-36.2,23.4-60.6,55.3-60.6c20.3,0,35,9.7,41.8,20.3v-65.2c0-0.5,2.4-1.7,5.3-1.7
			c5.3,0,10.4,2.7,10.4,15.2v142.7c0,5.8-2.9,7.5-7,7.5h-1.7c-4.1,0-6.8-1.7-6.8-7.5v-12.6c-10.4,14-23.9,22-43,22
			C2321.1,779.9,2297.2,756.3,2297.2,719.8z M2394.5,729.2V700c-7.2-16.7-20.5-27-40.8-27c-24.4,0-40.6,18.8-40.6,46.6
			c0,27,16.9,46.6,40.1,46.6C2374.2,766.2,2393.5,750.5,2394.5,729.2z"/>
		<path class="st0" d="M2434.6,720.1c0-35,24.6-60.8,57.9-60.8c32.3,0,53.6,22.9,53.6,57.9v1.4c0,4.3-1.7,5.3-6.5,5.3h-89.3
			c1.2,24.6,19.1,42,43.7,42c22.4,0,32.6-9.7,39.3-20.5c0.5-0.7,9.2,1.4,9.2,8.9c0,8-17.4,25.6-48.5,25.6
			C2459,779.9,2434.6,755.3,2434.6,720.1z M2450.7,710.4h78.7c-1.4-22.7-15.4-37.4-36.9-37.4C2470.8,673,2454.1,688.4,2450.7,710.4z
			"/>
		<path class="st0" d="M2585.9,680.2c8-12.3,21.2-21,39.1-21c30.4,0,45.6,20.3,45.6,50.7v60.6c0,5.8-2.9,7.5-7,7.5h-1.7
			c-4.1,0-7-1.7-7-7.5v-59.6c0-22.9-11.3-36.9-30.9-36.9c-17.9,0-31.1,9.9-37.9,24.4v72.2c0,5.8-2.9,7.5-7,7.5h-1.7
			c-4.1,0-7-1.7-7-7.5V662.9c0-0.5,2.4-1.7,5.3-1.7c5.3,0,10.1,2.7,10.1,15.2L2585.9,680.2L2585.9,680.2z"/>
		<path class="st0" d="M2688.8,669.9v-1.4c0-4.1,1.7-6.3,7.5-6.3h10.6v-20c0-5.8,2.9-7.5,7-7.5h1.7c4.1,0,6.8,1.7,6.8,7.5v20h30.7
			c5.8,0,7.5,2.2,7.5,6.3v1.4c0,4.1-1.7,6.3-7.5,6.3h-30.7v65.4c0,16.9,4.3,24.9,17.1,24.9c8,0,13.8-3.4,17.9-8.4
			c0.5-0.5,5.3,1.7,5.3,7.7c0,6.5-8.5,14.2-23.7,14.2c-22.4,0-32.1-12.8-32.1-36.7v-67.1h-10.6
			C2690.5,676.1,2688.8,674,2688.8,669.9z"/>
		<path class="st0" d="M2774.7,747.6c0-26.8,26.8-37.9,79.9-39.1h2.4v-4.1c0-19.8-11.6-30.7-32.3-30.7c-18.6,0-30.4,9.4-36.7,21.2
			c0,0.2-8.9-0.7-8.9-9.2c0-8.2,16.4-26.6,46.8-26.6c29.2,0,46.6,16.9,46.6,44.7v72.4c0,0.5-2.4,1.7-5.3,1.7
			c-5.3,0-9.9-2.7-9.9-15.2v-4.3c-9.2,13.3-24.6,21.2-43,21.2C2789.2,779.7,2774.7,766.9,2774.7,747.6z M2857,731.4v-10.6l-6.8,0.2
			c-39.4,1.4-59.6,8.4-59.6,26.6c0,11.6,9.4,19.1,25.1,19.1C2839.4,766.7,2857,751.9,2857,731.4z"/>
		<path class="st0" d="M2902.7,623c0-7,3.6-10.4,10.6-10.4c6.8,0,10.1,3.4,10.1,10.4s-3.6,10.4-10.6,10.4
			C2906.3,633.4,2902.7,629.8,2902.7,623z M2905.1,770.5V668.6c0-5.8,2.9-7.5,7-7.5h1.7c4.1,0,7,1.7,7,7.5v101.9
			c0,5.8-2.9,7.5-7,7.5h-1.7C2908,778,2905.1,776.3,2905.1,770.5z"/>
		<path class="st0" d="M2969.8,683.1c4.8-15.7,15-23.9,30.4-23.9c10.6,0,16.7,4.3,16.7,11.8c0,5.8-3.9,8.7-4.3,8.2
			c-3.4-2.9-7.5-4.8-14-4.8c-20.5,0-28.5,21.5-28.5,50.9v45.1c0,5.8-2.9,7.5-7,7.5h-1.7c-4.1,0-7-1.7-7-7.5V662.9
			c0-0.5,2.4-1.7,5.3-1.7c5.3,0,10.1,2.7,10.1,15.2V683.1z"/>
		<path class="st0" d="M3027,720.1c0-35,24.6-60.8,57.9-60.8c32.3,0,53.6,22.9,53.6,57.9v1.4c0,4.3-1.7,5.3-6.5,5.3h-89.3
			c1.2,24.6,19.1,42,43.7,42c22.4,0,32.6-9.7,39.3-20.5c0.5-0.7,9.2,1.4,9.2,8.9c0,8-17.4,25.6-48.5,25.6
			C3051.4,779.9,3027,755.3,3027,720.1z M3043.2,710.4h78.7c-1.4-22.7-15.4-37.4-36.9-37.4C3063.2,673,3046.6,688.4,3043.2,710.4z"
			/>
		<path class="st0" d="M1600.8,1009.5c0-36.2,23.4-60.6,55.3-60.6c20.3,0,35,9.7,41.8,20.3V904c0-0.5,2.4-1.7,5.3-1.7
			c5.3,0,10.4,2.7,10.4,15.2v142.7c0,5.8-2.9,7.5-7,7.5h-1.7c-4.1,0-6.8-1.7-6.8-7.5v-12.6c-10.4,14-23.9,22-43,22
			C1624.7,1069.6,1600.8,1046,1600.8,1009.5z M1698.1,1018.9v-29.2c-7.2-16.7-20.5-27-40.8-27c-24.4,0-40.6,18.8-40.6,46.6
			c0,27,16.9,46.6,40.1,46.6C1677.8,1055.9,1697.2,1040.2,1698.1,1018.9z"/>
		<path class="st0" d="M1738.2,1009.8c0-35,24.6-60.8,57.9-60.8c32.3,0,53.6,22.9,53.6,57.9v1.4c0,4.3-1.7,5.3-6.5,5.3h-89.3
			c1.2,24.6,19.1,42,43.7,42c22.5,0,32.6-9.7,39.3-20.5c0.5-0.7,9.2,1.4,9.2,8.9c0,8-17.4,25.6-48.5,25.6
			C1762.6,1069.6,1738.2,1045,1738.2,1009.8z M1754.4,1000.1h78.7c-1.4-22.7-15.4-37.4-36.9-37.4
			C1774.4,962.7,1757.8,978.1,1754.4,1000.1z"/>
		<path class="st0" d="M1916.4,1060.2V904c0-0.5,2.4-1.7,5.3-1.7c5.3,0,10.4,2.7,10.4,15.2v142.7c0,5.8-2.9,7.5-7,7.5h-1.7
			C1919.3,1067.7,1916.4,1066,1916.4,1060.2z"/>
		<path class="st0" d="M1958.4,1037.3c0-26.8,26.8-37.9,79.9-39.1h2.4v-4.1c0-19.8-11.6-30.7-32.3-30.7c-18.6,0-30.4,9.4-36.7,21.2
			c0,0.2-8.9-0.7-8.9-9.2c0-8.2,16.4-26.6,46.8-26.6c29.2,0,46.6,16.9,46.6,44.7v72.4c0,0.5-2.4,1.7-5.3,1.7
			c-5.3,0-9.9-2.7-9.9-15.2v-4.3c-9.2,13.3-24.6,21.2-43,21.2C1972.9,1069.4,1958.4,1056.6,1958.4,1037.3z M2040.7,1021.1v-10.6
			l-6.8,0.2c-39.3,1.4-59.6,8.4-59.6,26.6c0,11.6,9.4,19.1,25.1,19.1C2023.1,1056.4,2040.7,1041.6,2040.7,1021.1z"/>
		<path class="st0" d="M2131,1060.2V919.9c0-6,4.8-10.4,11.8-10.4h3.9c8.4,0,10.6,3.9,14.2,12.3l41,91l41.3-91
			c3.6-8.4,5.8-12.3,14.2-12.3h3.4c7,0,11.8,4.3,11.8,10.4v140.3c0,5.1-2.2,7.5-7,7.5h-1.9c-4.6,0-6.8-2.4-6.8-7.5V928.4l-41,89.1
			c-2.9,6.5-6.3,10.4-14.2,10.4c-8.2,0-11.3-3.9-14.2-10.4l-40.8-89.1v131.8c0,5.1-1.9,7.5-6.8,7.5h-2.4
			C2132.9,1067.7,2131,1065.3,2131,1060.2z"/>
		<path class="st0" d="M2299.7,1009c0-34.8,24.9-60.1,59.4-60.1c34.3,0,59.1,25.6,59.1,60.6c0,34.8-24.9,60.1-59.1,60.1
			C2324.6,1069.6,2299.7,1044.1,2299.7,1009z M2402.3,1009.5c0-26.8-18.3-46.8-43.2-46.8s-43.5,19.6-43.5,46.3
			c0,26.7,18.6,46.8,43.5,46.8C2383.8,1055.9,2402.3,1036.3,2402.3,1009.5z"/>
		<path class="st0" d="M2444.4,1060.2V904c0-0.5,2.4-1.7,5.3-1.7c5.3,0,10.4,2.7,10.4,15.2v142.7c0,5.8-2.9,7.5-7,7.5h-1.7
			C2447.2,1067.7,2444.4,1066,2444.4,1060.2z"/>
		<path class="st0" d="M2492.4,912.7c0-7,3.6-10.4,10.6-10.4c6.8,0,10.1,3.4,10.1,10.4s-3.6,10.4-10.6,10.4
			C2496,923.1,2492.4,919.5,2492.4,912.7z M2494.8,1060.2V958.3c0-5.8,2.9-7.5,7-7.5h1.7c4.1,0,7,1.7,7,7.5v101.9
			c0,5.8-2.9,7.5-7,7.5h-1.7C2497.7,1067.7,2494.8,1066,2494.8,1060.2z"/>
		<path class="st0" d="M2528.1,1086.3c0-17.4,16.2-29,37.2-33.1c-2.9-2.4-5.1-5.8-5.1-11.1c0-4.1,2.2-8.2,5.1-11.3
			c-17.4-6-28.7-20.8-28.7-38.4c0-23.9,19.8-43.5,46.6-43.5c10.9,0,21,3.4,29,8.9l8-12.8c3.4-4.8,6-7.2,11.1-7.2
			c6.5,0,9.4,6.5,8.9,7l-19.1,21.2c5.8,7,9.4,15.9,9.4,25.3c0,23.7-20.3,42.2-47.3,42.2c-2.2,0-4.3,0-6.3-0.2
			c-1.4,2.2-1.7,3.9-1.7,5.8c0,8,10.9,8.7,31.9,14c16.4,4.1,33.8,11.8,33.8,30.2c0,21.5-21.7,34.3-58.7,34.3
			C2545.5,1117.7,2528.1,1107.5,2528.1,1086.3z M2585.1,1062.4c-22,1.2-41.8,9.4-41.8,23.9c0,12.1,13.5,18.6,39.3,18.6
			c26.3,0,42.5-7.5,42.5-21C2625.2,1069.9,2603.4,1067,2585.1,1062.4z M2614.3,991.9c0-17.4-12.6-29.9-31.4-29.9
			c-17.9,0-30.4,12.1-30.4,29.9c0,17.4,12.8,29.5,30.9,29.5C2601.8,1021.4,2614.3,1009.3,2614.3,991.9z"/>
		<path class="st0" d="M2673.2,969.9c8-12.3,21.2-21,39.1-21c30.4,0,45.6,20.3,45.6,50.7v60.6c0,5.8-2.9,7.5-7,7.5h-1.7
			c-4.1,0-7-1.7-7-7.5v-59.6c0-22.9-11.3-36.9-30.9-36.9c-17.9,0-31.1,9.9-37.9,24.4v72.2c0,5.8-2.9,7.5-7,7.5h-1.7
			c-4.1,0-7-1.7-7-7.5V952.6c0-0.5,2.4-1.7,5.3-1.7c5.3,0,10.1,2.7,10.1,15.2L2673.2,969.9L2673.2,969.9z"/>
		<path class="st0" d="M2781.6,1009.8c0-35,24.6-60.8,57.9-60.8c32.3,0,53.6,22.9,53.6,57.9v1.4c0,4.3-1.7,5.3-6.5,5.3h-89.3
			c1.2,24.6,19.1,42,43.7,42c22.4,0,32.6-9.7,39.3-20.5c0.5-0.7,9.2,1.4,9.2,8.9c0,8-17.4,25.6-48.5,25.6
			C2806,1069.6,2781.6,1045,2781.6,1009.8z M2797.8,1000.1h78.7c-1.4-22.7-15.4-37.4-36.9-37.4
			C2817.8,962.7,2801.2,978.1,2797.8,1000.1z M2852.6,902.8c3.9-2.9,7.7-4.3,11.1-4.3c3.9,0,7.2,2.7,7.2,6.5c0,4.1-2.9,8-8.9,12.1
			c-16.2,11.1-38.4,18.1-39.6,16.7C2821.4,932.5,2837.1,913.7,2852.6,902.8z"/>
		<path class="st0" d="M2909.8,1009.8c0-35,24.6-60.8,57.9-60.8c32.3,0,53.6,22.9,53.6,57.9v1.4c0,4.3-1.7,5.3-6.5,5.3h-89.3
			c1.2,24.6,19.1,42,43.7,42c22.4,0,32.6-9.7,39.3-20.5c0.5-0.7,9.2,1.4,9.2,8.9c0,8-17.4,25.6-48.5,25.6
			C2934.2,1069.6,2909.8,1045,2909.8,1009.8z M2926,1000.1h78.7c-1.4-22.7-15.4-37.4-36.9-37.4C2946,962.7,2929.4,978.1,2926,1000.1
			z"/>
	</g>
</g>
<g>
	<path class="st1" d="M664.3,1328.3v-41.8c84,0,165.5-16.5,242.2-48.9c74.1-31.3,140.7-76.2,197.8-133.4
		c57.2-57.2,102-123.7,133.4-197.8c32.4-76.7,48.9-158.2,48.9-242.2c0-84-16.5-165.5-48.9-242.2c-31.3-74.1-76.2-140.7-133.4-197.8
		S980.6,122,906.5,90.7c-76.7-32.4-158.2-48.9-242.2-48.9V0c89.6,0,176.6,17.6,258.5,52.2c79.1,33.5,150.1,81.3,211.1,142.3
		s108.9,132,142.3,211.1c34.6,81.9,52.2,168.9,52.2,258.5s-17.6,176.6-52.2,258.5c-33.5,79.1-81.3,150.1-142.3,211.1
		c-61,61-132,108.9-211.1,142.3C840.9,1310.7,753.9,1328.3,664.3,1328.3z"/>
	<path class="st0" d="M664.1,1328.3c-89.6,0-176.6-17.6-258.5-52.2c-79.1-33.5-150.1-81.3-211.1-142.3c-61-61-108.9-132-142.3-211.1
		C17.6,840.8,0,753.8,0,664.1s17.6-176.6,52.2-258.5c33.5-79.1,81.3-150.1,142.3-211.1c61-61,132-108.9,211.1-142.3
		C487.5,17.6,574.5,0,664.1,0v41.8c-84,0-165.5,16.5-242.2,48.9c-74.1,31.3-140.7,76.2-197.8,133.4S122,347.8,90.7,421.9
		c-32.4,76.7-48.9,158.2-48.9,242.2c0,84,16.5,165.5,48.9,242.2c31.3,74.1,76.2,140.7,133.4,197.8c57.2,57.2,123.7,102,197.8,133.4
		c76.7,32.4,158.2,48.9,242.2,48.9V1328.3z"/>
</g>
<g>
	<g>
		<g>
			<path class="st1" d="M609.4,335.3c-23.8-11.4-86.7-38.2-119.4-44.3c-63-11.7-95.7,12.3-127.9,55
				c-42.6,53.8-47.2,133.4-47.2,165.2c0,59.8,24.7,114.4,56.1,183.6c8.4,18.6,17.1,37.8,26.1,58.7c2.3,5.5,5,11.6,7.9,18.1
				c19.7,44.9,41.2,101.8,53.3,157.7l37.5-6.3c-11.7-61.3-35.6-119.4-56.3-166.5c-2.8-6.5-5.5-12.5-7.8-17.9
				c-9.1-21.2-17.9-40.6-26.4-59.4c-29.5-65-52.7-116.4-52.7-168.1c0-58,14.7-111.1,39.2-142l0.3-0.4c29.7-39.3,50.1-48.5,91.2-40.9
				c27.1,5,86.1,29.8,110.2,41.3l0.2,0.1c59.3,27.3,66.8,27.3,70.8,27.3v-37.6L609.4,335.3z"/>
		</g>
	</g>
	<circle class="st0" cx="508.8" cy="1032.8" r="13.1"/>
	<g>
		<g>
			<path class="st0" d="M719,335.3c23.8-11.4,86.7-38.2,119.4-44.3c63-11.7,95.7,12.3,127.9,55c42.6,53.8,47.2,133.4,47.2,165.2
				c0,59.8-24.7,114.4-56.1,183.6c-8.4,18.6-17.1,37.8-26.1,58.7c-2.3,5.5-5,11.6-7.9,18.1c-19.7,44.9-41.2,101.8-53.3,157.7
				l-37.5-6.3c11.7-61.3,35.6-119.4,56.3-166.5c2.8-6.5,5.5-12.5,7.8-17.9c9.1-21.2,17.9-40.6,26.4-59.4
				c29.5-65,52.7-116.4,52.7-168.1c0-58-14.7-111.1-39.2-142l-0.3-0.4c-29.7-39.3-50.1-48.5-91.2-40.9c-27.1,5-86.1,29.8-110.2,41.3
				l-0.2,0.1c-59.3,27.3-66.8,27.3-70.8,27.3v-37.6L719,335.3z"/>
		</g>
	</g>
	<circle class="st0" cx="836" cy="977.6" r="18.8"/>
	<g>
		<circle class="st1" cx="489.7" cy="977.6" r="18.8"/>
		<circle class="st1" cx="524.3" cy="1077.9" r="9.2"/>
		<circle class="st1" cx="816.9" cy="1032.8" r="13.1"/>
	</g>
	<circle class="st0" cx="801.4" cy="1077.9" r="9.2"/>
</g>
</svg>
